<svg viewBox="0 0 400 300" xmlns="http://www.w3.org/2000/svg"><g fill="none" stroke="#FFFFFF" stroke-width="2" stroke-linejoin="round" stroke-linecap="round"><path d="M60 150 Q90 130 150 128 L300 128 Q340 130 360 145 Q370 150 360 158 L130 162 Q80 162 60 158 Q52 154 60 150 Z"/><path d="M300 128 Q335 120 365 140"/><path d="M130 162 L100 195 L120 195 L150 162"/><path d="M250 145 L290 110 L300 112 L270 148"/><circle cx="110" cy="148" r="5" stroke-width="1"/><circle cx="140" cy="147" r="5" stroke-width="1"/><circle cx="170" cy="146" r="5" stroke-width="1"/><circle cx="200" cy="145" r="5" stroke-width="1"/><circle cx="230" cy="144" r="5" stroke-width="1"/><circle cx="260" cy="143" r="5" stroke-width="1"/><path d="M95 158 L95 145 Q95 138 102 138 L112 138 Q119 138 119 145 L119 165" stroke-width="1.5"/></g><g fill="none" stroke="#FFFFFF" stroke-width="1.5" stroke-linecap="round"><circle cx="130" cy="230" r="5"/><line x1="130" y1="235" x2="130" y2="250"/><line x1="130" y1="250" x2="125" y2="262"/><line x1="130" y1="250" x2="135" y2="262"/></g><g fill="none" stroke="#FFFFFF" stroke-width="1.5" stroke-linecap="round"><circle cx="75" cy="230" r="5"/><line x1="75" y1="235" x2="75" y2="250"/><line x1="75" y1="250" x2="70" y2="262"/><line x1="75" y1="250" x2="80" y2="262"/></g></svg>