<svg viewBox="0 0 300 400" xmlns="http://www.w3.org/2000/svg">
  <rect x="50" y="30" width="200" height="340" fill="none" stroke="#FFFFFF" stroke-width="2"/>
  <line x1="70" y1="55" x2="180" y2="55" stroke="#FFFFFF" stroke-width="2"/>
  <line x1="70" y1="68" x2="150" y2="68" stroke="#FFFFFF" stroke-width="1"/>
  <rect x="200" y="48" width="30" height="30" fill="none" stroke="#FFFFFF" stroke-width="1.5"/>
  <line x1="207" y1="55" x2="223" y2="55" stroke="#FFFFFF" stroke-width="1"/>
  <line x1="207" y1="62" x2="223" y2="62" stroke="#FFFFFF" stroke-width="1"/>
  <line x1="207" y1="69" x2="223" y2="69" stroke="#FFFFFF" stroke-width="1"/>
  <line x1="50" y1="95" x2="250" y2="95" stroke="#FFFFFF" stroke-width="1.5"/>

  <line x1="70" y1="115" x2="100" y2="115" stroke="#FFFFFF" stroke-width="1"/>
  <line x1="190" y1="115" x2="230" y2="115" stroke="#FFFFFF" stroke-width="1"/>
  <line x1="70" y1="128" x2="110" y2="128" stroke="#FFFFFF" stroke-width="1"/>
  <line x1="185" y1="128" x2="230" y2="128" stroke="#FFFFFF" stroke-width="1"/>

  <line x1="50" y1="148" x2="250" y2="148" stroke="#FFFFFF" stroke-width="1.5"/>
  <line x1="70" y1="160" x2="95" y2="160" stroke="#FFFFFF" stroke-width="1"/>
  <line x1="120" y1="160" x2="150" y2="160" stroke="#FFFFFF" stroke-width="1"/>
  <line x1="200" y1="160" x2="230" y2="160" stroke="#FFFFFF" stroke-width="1"/>
  <line x1="50" y1="172" x2="250" y2="172" stroke="#FFFFFF" stroke-width="1"/>

  <line x1="70" y1="190" x2="160" y2="190" stroke="#FFFFFF" stroke-width="1"/>
  <line x1="195" y1="190" x2="230" y2="190" stroke="#FFFFFF" stroke-width="1"/>
  <line x1="50" y1="205" x2="250" y2="205" stroke="#FFFFFF" stroke-width="1"/>

  <line x1="70" y1="223" x2="155" y2="223" stroke="#FFFFFF" stroke-width="1"/>
  <line x1="195" y1="223" x2="230" y2="223" stroke="#FFFFFF" stroke-width="1"/>
  <line x1="50" y1="238" x2="250" y2="238" stroke="#FFFFFF" stroke-width="1"/>

  <line x1="70" y1="256" x2="170" y2="256" stroke="#FFFFFF" stroke-width="1"/>
  <line x1="195" y1="256" x2="230" y2="256" stroke="#FFFFFF" stroke-width="1"/>
  <line x1="50" y1="271" x2="250" y2="271" stroke="#FFFFFF" stroke-width="1"/>

  <line x1="70" y1="289" x2="150" y2="289" stroke="#FFFFFF" stroke-width="1"/>
  <line x1="195" y1="289" x2="230" y2="289" stroke="#FFFFFF" stroke-width="1"/>
  <line x1="50" y1="304" x2="250" y2="304" stroke="#FFFFFF" stroke-width="1.5"/>

  <line x1="130" y1="330" x2="180" y2="330" stroke="#FFFFFF" stroke-width="2"/>
  <line x1="185" y1="330" x2="230" y2="330" stroke="#FFFFFF" stroke-width="2"/>
  <line x1="130" y1="345" x2="160" y2="345" stroke="#FFFFFF" stroke-width="1"/>
</svg>