<svg viewBox="0 0 400 300" xmlns="http://www.w3.org/2000/svg" fill="none" stroke="#FFFFFF" stroke-width="2">
  <!-- Server chassis outer silhouette -->
  <rect x="80" y="50" width="240" height="200" rx="6"/>

  <!-- Rack unit divisions -->
  <line x1="80" y1="100" x2="320" y2="100" stroke-width="1.5"/>
  <line x1="80" y1="150" x2="320" y2="150" stroke-width="1.5"/>
  <line x1="80" y1="200" x2="320" y2="200" stroke-width="1.5"/>

  <!-- Unit 1: power LED + vents + drive bays -->
  <circle cx="98" cy="75" r="4" stroke-width="1"/>
  <circle cx="112" cy="75" r="4" stroke-width="1"/>
  <line x1="135" y1="66" x2="135" y2="84" stroke-width="1"/>
  <line x1="143" y1="66" x2="143" y2="84" stroke-width="1"/>
  <line x1="151" y1="66" x2="151" y2="84" stroke-width="1"/>
  <line x1="159" y1="66" x2="159" y2="84" stroke-width="1"/>
  <rect x="230" y="64" width="36" height="22" rx="2" stroke-width="1"/>
  <rect x="272" y="64" width="36" height="22" rx="2" stroke-width="1"/>
  <line x1="238" y1="75" x2="258" y2="75" stroke-width="1"/>
  <line x1="280" y1="75" x2="300" y2="75" stroke-width="1"/>

  <!-- Unit 2: calendar/booking icon + slots -->
  <rect x="96" y="112" width="34" height="28" rx="2" stroke-width="1"/>
  <line x1="96" y1="120" x2="130" y2="120" stroke-width="1"/>
  <line x1="103" y1="108" x2="103" y2="116" stroke-width="1"/>
  <line x1="123" y1="108" x2="123" y2="116" stroke-width="1"/>
  <line x1="104" y1="127" x2="110" y2="127" stroke-width="1"/>
  <line x1="116" y1="127" x2="122" y2="127" stroke-width="1"/>
  <line x1="104" y1="133" x2="110" y2="133" stroke-width="1"/>
  <rect x="160" y="116" width="140" height="20" rx="2" stroke-width="1"/>
  <line x1="180" y1="116" x2="180" y2="136" stroke-width="1"/>
  <line x1="200" y1="116" x2="200" y2="136" stroke-width="1"/>
  <line x1="220" y1="116" x2="220" y2="136" stroke-width="1"/>
  <line x1="240" y1="116" x2="240" y2="136" stroke-width="1"/>
  <line x1="260" y1="116" x2="260" y2="136" stroke-width="1"/>
  <line x1="280" y1="116" x2="280" y2="136" stroke-width="1"/>

  <!-- Unit 3: status indicators + connectors -->
  <circle cx="100" cy="175" r="4" stroke-width="1"/>
  <circle cx="116" cy="175" r="4" stroke-width="1"/>
  <circle cx="132" cy="175" r="4" stroke-width="1"/>
  <rect x="200" y="164" width="100" height="22" rx="2" stroke-width="1"/>
  <line x1="225" y1="164" x2="225" y2="186" stroke-width="1"/>
  <line x1="250" y1="164" x2="250" y2="186" stroke-width="1"/>
  <line x1="275" y1="164" x2="275" y2="186" stroke-width="1"/>

  <!-- Unit 4: vents + db cylinders -->
  <line x1="96" y1="212" x2="96" y2="238" stroke-width="1"/>
  <line x1="104" y1="212" x2="104" y2="238" stroke-width="1"/>
  <line x1="112" y1="212" x2="112" y2="238" stroke-width="1"/>
  <line x1="120" y1="212" x2="120" y2="238" stroke-width="1"/>
  <line x1="128" y1="212" x2="128" y2="238" stroke-width="1"/>
  <ellipse cx="270" cy="216" rx="30" ry="7" stroke-width="1"/>
  <path d="M240 216 v18 a30 7 0 0 0 60 0 v-18" stroke-width="1"/>
  <path d="M240 225 a30 7 0 0 0 60 0" stroke-width="1"/>
</svg>