<svg viewBox="0 0 400 300" xmlns="http://www.w3.org/2000/svg">
  <rect x="30" y="30" width="340" height="240" fill="none" stroke="#FFFFFF" stroke-width="2"/>
  <polygon points="40,150 60,140 60,160" fill="none" stroke="#FFFFFF" stroke-width="1.5"/>
  <line x1="30" y1="150" x2="60" y2="150" fill="none" stroke="#FFFFFF" stroke-width="1.5"/>

  <line x1="60" y1="30" x2="60" y2="200" stroke="#FFFFFF" stroke-width="1.5"/>
  <line x1="60" y1="200" x2="100" y2="200" stroke="#FFFFFF" stroke-width="1.5"/>
  <line x1="90" y1="60" x2="90" y2="240" stroke="#FFFFFF" stroke-width="1.5"/>
  <line x1="90" y1="60" x2="140" y2="60" stroke="#FFFFFF" stroke-width="1.5"/>

  <line x1="120" y1="100" x2="120" y2="270" stroke="#FFFFFF" stroke-width="1.5"/>
  <line x1="120" y1="100" x2="170" y2="100" stroke="#FFFFFF" stroke-width="1.5"/>
  <line x1="120" y1="160" x2="170" y2="160" stroke="#FFFFFF" stroke-width="1.5"/>

  <line x1="150" y1="30" x2="150" y2="130" stroke="#FFFFFF" stroke-width="1.5"/>
  <line x1="150" y1="130" x2="200" y2="130" stroke="#FFFFFF" stroke-width="1.5"/>
  <line x1="150" y1="200" x2="220" y2="200" stroke="#FFFFFF" stroke-width="1.5"/>
  <line x1="150" y1="200" x2="150" y2="240" stroke="#FFFFFF" stroke-width="1.5"/>

  <line x1="180" y1="60" x2="180" y2="160" stroke="#FFFFFF" stroke-width="1.5"/>
  <line x1="180" y1="60" x2="250" y2="60" stroke="#FFFFFF" stroke-width="1.5"/>
  <line x1="200" y1="100" x2="200" y2="270" stroke="#FFFFFF" stroke-width="1.5"/>
  <line x1="200" y1="100" x2="240" y2="100" stroke="#FFFFFF" stroke-width="1.5"/>

  <line x1="230" y1="30" x2="230" y2="160" stroke="#FFFFFF" stroke-width="1.5"/>
  <line x1="230" y1="160" x2="280" y2="160" stroke="#FFFFFF" stroke-width="1.5"/>
  <line x1="240" y1="130" x2="290" y2="130" stroke="#FFFFFF" stroke-width="1.5"/>
  <line x1="240" y1="200" x2="240" y2="240" stroke="#FFFFFF" stroke-width="1.5"/>
  <line x1="240" y1="240" x2="300" y2="240" stroke="#FFFFFF" stroke-width="1.5"/>

  <line x1="270" y1="60" x2="270" y2="200" stroke="#FFFFFF" stroke-width="1.5"/>
  <line x1="270" y1="60" x2="320" y2="60" stroke="#FFFFFF" stroke-width="1.5"/>
  <line x1="270" y1="200" x2="320" y2="200" stroke="#FFFFFF" stroke-width="1.5"/>

  <line x1="300" y1="90" x2="300" y2="170" stroke="#FFFFFF" stroke-width="1.5"/>
  <line x1="300" y1="90" x2="340" y2="90" stroke="#FFFFFF" stroke-width="1.5"/>
  <line x1="310" y1="120" x2="370" y2="120" stroke="#FFFFFF" stroke-width="1.5"/>
  <line x1="310" y1="240" x2="310" y2="270" stroke="#FFFFFF" stroke-width="1.5"/>

  <line x1="340" y1="30" x2="340" y2="170" stroke="#FFFFFF" stroke-width="1.5"/>
  <line x1="340" y1="170" x2="370" y2="170" stroke="#FFFFFF" stroke-width="1.5"/>

  <polyline points="340,150 360,150 360,150" fill="none" stroke="#FFFFFF" stroke-width="1.5"/>
  <line x1="370" y1="150" x2="395" y2="150" stroke="#FFFFFF" stroke-width="1.5"/>
  <polyline points="385,140 395,150 385,160" fill="none" stroke="#FFFFFF" stroke-width="1.5"/>

  <circle cx="45" cy="150" r="3" fill="none" stroke="#FFFFFF" stroke-width="1.5"/>
</svg>