<svg viewBox="0 0 400 300" xmlns="http://www.w3.org/2000/svg">
  <path d="M 110 90 L 130 240 Q 132 255 148 255 L 232 255 Q 248 255 250 240 L 270 90 Z" fill="none" stroke="#FFFFFF" stroke-width="2"/>
  <ellipse cx="190" cy="90" rx="80" ry="16" fill="none" stroke="#FFFFFF" stroke-width="2"/>
  <ellipse cx="190" cy="90" rx="68" ry="12" fill="none" stroke="#FFFFFF" stroke-width="1"/>
  <path d="M 268 110 Q 320 108 322 150 Q 324 192 262 195" fill="none" stroke="#FFFFFF" stroke-width="2"/>
  <path d="M 266 125 Q 305 124 307 150 Q 309 178 260 180" fill="none" stroke="#FFFFFF" stroke-width="1"/>
  <path d="M 170 65 Q 162 52 172 40" fill="none" stroke="#FFFFFF" stroke-width="1"/>
  <path d="M 190 65 Q 182 52 192 40" fill="none" stroke="#FFFFFF" stroke-width="1"/>
  <path d="M 210 65 Q 202 52 212 40" fill="none" stroke="#FFFFFF" stroke-width="1"/>
  <line x1="135" y1="270" x2="245" y2="270" stroke="#FFFFFF" stroke-width="1"/>
</svg>