<svg viewBox="0 0 300 400" xmlns="http://www.w3.org/2000/svg">
  <path d="M60 30 L210 30 L240 60 L240 370 L60 370 Z" fill="none" stroke="#FFFFFF" stroke-width="2"/>
  <polyline points="210,30 210,60 240,60" fill="none" stroke="#FFFFFF" stroke-width="1.5"/>
  <line x1="85" y1="70" x2="150" y2="70" stroke="#FFFFFF" stroke-width="2"/>
  <line x1="85" y1="100" x2="215" y2="100" stroke="#FFFFFF" stroke-width="1"/>
  <line x1="85" y1="115" x2="215" y2="115" stroke="#FFFFFF" stroke-width="1"/>
  <line x1="85" y1="130" x2="195" y2="130" stroke="#FFFFFF" stroke-width="1"/>
  <line x1="85" y1="160" x2="215" y2="160" stroke="#FFFFFF" stroke-width="1"/>
  <line x1="85" y1="175" x2="215" y2="175" stroke="#FFFFFF" stroke-width="1"/>
  <line x1="85" y1="190" x2="200" y2="190" stroke="#FFFFFF" stroke-width="1"/>
  <line x1="85" y1="205" x2="215" y2="205" stroke="#FFFFFF" stroke-width="1"/>
  <line x1="85" y1="220" x2="180" y2="220" stroke="#FFFFFF" stroke-width="1"/>
  <line x1="85" y1="250" x2="215" y2="250" stroke="#FFFFFF" stroke-width="1"/>
  <line x1="85" y1="265" x2="205" y2="265" stroke="#FFFFFF" stroke-width="1"/>
  <line x1="85" y1="305" x2="160" y2="305" stroke="#FFFFFF" stroke-width="1.5"/>
  <path d="M85 335 q15 -18 30 0 t30 0" fill="none" stroke="#FFFFFF" stroke-width="1.5"/>
  <circle cx="190" cy="330" r="22" fill="none" stroke="#FFFFFF" stroke-width="1.5"/>
  <circle cx="190" cy="330" r="15" fill="none" stroke="#FFFFFF" stroke-width="1"/>
  <path d="M180 330 l6 6 l12 -12" fill="none" stroke="#FFFFFF" stroke-width="1.5"/>
</svg>