<svg viewBox="0 0 400 300" xmlns="http://www.w3.org/2000/svg" fill="none" stroke="#FFFFFF" stroke-width="2"><polyline points="40,70 230,70 230,200 40,200 40,70"/><path d="M230,110 L270,110 L295,140 L295,200 L230,200"/><line x1="40" y1="200" x2="295" y2="200"/><circle cx="95" cy="205" r="18"/><circle cx="95" cy="205" r="7"/><circle cx="255" cy="205" r="18"/><circle cx="255" cy="205" r="7"/><rect x="245" y="125" width="40" height="30"/><line x1="40" y1="70" x2="30" y2="40" stroke-width="2.5"/><line x1="40" y1="200" x2="30" y2="180" stroke-width="2.5"/><line x1="30" y1="40" x2="30" y2="180" stroke-width="1"/><line x1="60" y1="85" x2="60" y2="185" stroke-width="1"/><rect x="150" y="125" width="50" height="70" stroke-width="1.5"/><line x1="150" y1="160" x2="200" y2="160" stroke-width="1"/><rect x="245" y="150" width="50" height="45" stroke-width="1.5"/><line x1="245" y1="172" x2="295" y2="172" stroke-width="1"/><rect x="330" y="90" width="55" height="130" stroke-width="2"/><rect x="340" y="100" width="35" height="45" stroke-width="1"/><line x1="340" y1="160" x2="375" y2="160" stroke-width="1"/></svg>