<svg viewBox="0 0 400 300" xmlns="http://www.w3.org/2000/svg">
<polyline points="30,260 30,160 100,160 100,120 170,120 170,160 240,160 240,120 310,120 310,160 370,160 370,260 30,260" fill="none" stroke="#FFFFFF" stroke-width="2"/>
<polyline points="100,160 100,200 30,200" fill="none" stroke="#E0E0E0" stroke-width="1"/>
<line x1="30" y1="260" x2="370" y2="260" stroke="#FFFFFF" stroke-width="2"/>
<rect x="50" y="60" width="30" height="100" fill="none" stroke="#FFFFFF" stroke-width="1.5"/>
<line x1="50" y1="75" x2="80" y2="75" stroke="#E0E0E0" stroke-width="1"/>
<rect x="48" y="55" width="34" height="8" fill="none" stroke="#E0E0E0" stroke-width="1"/>
<path d="M58,55 Q56,42 64,38 Q72,40 70,55" fill="none" stroke="#E0E0E0" stroke-width="1"/>
<rect x="48" y="215" width="40" height="45" fill="none" stroke="#E0E0E0" stroke-width="1"/>
<line x1="68" y1="215" x2="68" y2="260" stroke="#E0E0E0" stroke-width="1"/>
<rect x="115" y="175" width="20" height="20" fill="none" stroke="#E0E0E0" stroke-width="1"/>
<line x1="125" y1="175" x2="125" y2="195" stroke="#E0E0E0" stroke-width="1"/>
<line x1="115" y1="185" x2="135" y2="185" stroke="#E0E0E0" stroke-width="1"/>
<rect x="148" y="175" width="20" height="20" fill="none" stroke="#E0E0E0" stroke-width="1"/>
<line x1="158" y1="175" x2="158" y2="195" stroke="#E0E0E0" stroke-width="1"/>
<line x1="148" y1="185" x2="168" y2="185" stroke="#E0E0E0" stroke-width="1"/>
<rect x="115" y="215" width="20" height="20" fill="none" stroke="#E0E0E0" stroke-width="1"/>
<line x1="125" y1="215" x2="125" y2="235" stroke="#E0E0E0" stroke-width="1"/>
<line x1="115" y1="225" x2="135" y2="225" stroke="#E0E0E0" stroke-width="1"/>
<rect x="148" y="215" width="20" height="20" fill="none" stroke="#E0E0E0" stroke-width="1"/>
<line x1="158" y1="215" x2="158" y2="235" stroke="#E0E0E0" stroke-width="1"/>
<line x1="148" y1="225" x2="168" y2="225" stroke="#E0E0E0" stroke-width="1"/>
<rect x="190" y="215" width="50" height="45" fill="none" stroke="#FFFFFF" stroke-width="1.5"/>
<line x1="215" y1="215" x2="215" y2="260" stroke="#E0E0E0" stroke-width="1"/>
<rect x="255" y="175" width="20" height="20" fill="none" stroke="#E0E0E0" stroke-width="1"/>
<line x1="265" y1="175" x2="265" y2="195" stroke="#E0E0E0" stroke-width="1"/>
<line x1="255" y1="185" x2="275" y2="185" stroke="#E0E0E0" stroke-width="1"/>
<rect x="288" y="175" width="20" height="20" fill="none" stroke="#E0E0E0" stroke-width="1"/>
<line x1="298" y1="175" x2="298" y2="195" stroke="#E0E0E0" stroke-width="1"/>
<line x1="288" y1="185" x2="308" y2="185" stroke="#E0E0E0" stroke-width="1"/>
<rect x="325" y="180" width="35" height="80" fill="none" stroke="#E0E0E0" stroke-width="1"/>
<line x1="325" y1="200" x2="360" y2="200" stroke="#E0E0E0" stroke-width="1"/>
<line x1="325" y1="220" x2="360" y2="220" stroke="#E0E0E0" stroke-width="1"/>
<line x1="325" y1="240" x2="360" y2="240" stroke="#E0E0E0" stroke-width="1"/>
</svg>