<svg viewBox="0 0 400 300" xmlns="http://www.w3.org/2000/svg">
  <rect x="40" y="30" width="330" height="230" fill="none" stroke="#FFFFFF" stroke-width="2"/>
  <line x1="70" y1="30" x2="70" y2="230" stroke="#FFFFFF" stroke-width="2"/>
  <line x1="70" y1="230" x2="370" y2="230" stroke="#FFFFFF" stroke-width="2"/>

  <line x1="70" y1="60" x2="370" y2="60" stroke="#FFFFFF" stroke-width="0.75"/>
  <line x1="70" y1="100" x2="370" y2="100" stroke="#FFFFFF" stroke-width="0.75"/>
  <line x1="70" y1="140" x2="370" y2="140" stroke="#FFFFFF" stroke-width="0.75"/>
  <line x1="70" y1="180" x2="370" y2="180" stroke="#FFFFFF" stroke-width="0.75"/>

  <rect x="90" y="180" width="40" height="50" fill="none" stroke="#FFFFFF" stroke-width="1.5"/>
  <line x1="110" y1="180" x2="110" y2="230" stroke="#FFFFFF" stroke-width="0.75"/>

  <rect x="150" y="140" width="40" height="90" fill="none" stroke="#FFFFFF" stroke-width="1.5"/>
  <line x1="170" y1="140" x2="170" y2="230" stroke="#FFFFFF" stroke-width="0.75"/>

  <rect x="210" y="100" width="40" height="130" fill="none" stroke="#FFFFFF" stroke-width="1.5"/>
  <line x1="230" y1="100" x2="230" y2="230" stroke="#FFFFFF" stroke-width="0.75"/>

  <rect x="270" y="70" width="40" height="160" fill="none" stroke="#FFFFFF" stroke-width="1.5"/>
  <line x1="290" y1="70" x2="290" y2="230" stroke="#FFFFFF" stroke-width="0.75"/>

  <polyline points="110,170 170,130 230,90 290,55" fill="none" stroke="#FFFFFF" stroke-width="1.2" stroke-dasharray="5 4"/>
  <circle cx="110" cy="170" r="3" fill="none" stroke="#FFFFFF" stroke-width="1"/>
  <circle cx="170" cy="130" r="3" fill="none" stroke="#FFFFFF" stroke-width="1"/>
  <circle cx="230" cy="90" r="3" fill="none" stroke="#FFFFFF" stroke-width="1"/>
  <circle cx="290" cy="55" r="3" fill="none" stroke="#FFFFFF" stroke-width="1"/>

  <polyline points="60,200 70,200" stroke="#FFFFFF" stroke-width="1"/>
  <polyline points="60,160 70,160" stroke="#FFFFFF" stroke-width="1"/>
  <polyline points="60,120 70,120" stroke="#FFFFFF" stroke-width="1"/>
  <polyline points="60,80 70,80" stroke="#FFFFFF" stroke-width="1"/>
</svg>