<svg viewBox="0 0 400 300" xmlns="http://www.w3.org/2000/svg">
  <rect x="20" y="20" width="360" height="260" stroke="#FFFFFF" stroke-width="2" fill="none"/>
  <line x1="20" y1="90" x2="155" y2="90" stroke="#FFFFFF" stroke-width="1.5"/>
  <line x1="155" y1="20" x2="155" y2="200" stroke="#FFFFFF" stroke-width="1.5"/>
  <line x1="155" y1="200" x2="380" y2="200" stroke="#FFFFFF" stroke-width="1.5"/>
  <line x1="155" y1="120" x2="380" y2="120" stroke="#FFFFFF" stroke-width="1.5"/>
  <line x1="265" y1="120" x2="265" y2="200" stroke="#FFFFFF" stroke-width="1.5"/>

  <!-- entrance / reception -->
  <line x1="55" y1="20" x2="55" y2="35" stroke="#FFFFFF" stroke-width="2"/>
  <path d="M55 35 A20 20 0 0 0 75 55" stroke="#FFFFFF" stroke-width="1"/>
  <rect x="30" y="55" width="40" height="20" stroke="#FFFFFF" stroke-width="1" fill="none"/>

  <!-- locker room (top left) -->
  <rect x="32" y="100" width="115" height="12" stroke="#FFFFFF" stroke-width="1" fill="none"/>
  <line x1="48" y1="100" x2="48" y2="112" stroke="#FFFFFF" stroke-width="0.8"/>
  <line x1="64" y1="100" x2="64" y2="112" stroke="#FFFFFF" stroke-width="0.8"/>
  <line x1="80" y1="100" x2="80" y2="112" stroke="#FFFFFF" stroke-width="0.8"/>
  <line x1="96" y1="100" x2="96" y2="112" stroke="#FFFFFF" stroke-width="0.8"/>
  <line x1="112" y1="100" x2="112" y2="112" stroke="#FFFFFF" stroke-width="0.8"/>
  <line x1="128" y1="100" x2="128" y2="112" stroke="#FFFFFF" stroke-width="0.8"/>

  <!-- treadmills (top middle-right cardio zone) -->
  <rect x="175" y="40" width="22" height="40" rx="3" stroke="#FFFFFF" stroke-width="1.2" fill="none"/>
  <line x1="175" y1="58" x2="197" y2="58" stroke="#FFFFFF" stroke-width="0.8"/>
  <rect x="215" y="40" width="22" height="40" rx="3" stroke="#FFFFFF" stroke-width="1.2" fill="none"/>
  <line x1="215" y1="58" x2="237" y2="58" stroke="#FFFFFF" stroke-width="0.8"/>
  <rect x="255" y="40" width="22" height="40" rx="3" stroke="#FFFFFF" stroke-width="1.2" fill="none"/>
  <line x1="255" y1="58" x2="277" y2="58" stroke="#FFFFFF" stroke-width="0.8"/>
  <rect x="295" y="40" width="22" height="40" rx="3" stroke="#FFFFFF" stroke-width="1.2" fill="none"/>
  <line x1="295" y1="58" x2="317" y2="58" stroke="#FFFFFF" stroke-width="0.8"/>

  <!-- weight machines (right) -->
  <circle cx="345" cy="55" r="9" stroke="#FFFFFF" stroke-width="1" fill="none"/>
  <circle cx="345" cy="90" r="9" stroke="#FFFFFF" stroke-width="1" fill="none"/>

  <!-- free weights / dumbbell rack (lower left) -->
  <rect x="40" y="225" width="90" height="14" stroke="#FFFFFF" stroke-width="1.2" fill="none"/>
  <circle cx="52" cy="232" r="3" stroke="#FFFFFF" stroke-width="0.8" fill="none"/>
  <circle cx="68" cy="232" r="3" stroke="#FFFFFF" stroke-width="0.8" fill="none"/>
  <circle cx="84" cy="232" r="3" stroke="#FFFFFF" stroke-width="0.8" fill="none"/>
  <circle cx="100" cy="232" r="3" stroke="#FFFFFF" stroke-width="0.8" fill="none"/>
  <circle cx="116" cy="232" r="3" stroke="#FFFFFF" stroke-width="0.8" fill="none"/>

  <!-- bench -->
  <rect x="50" y="255" width="50" height="12" rx="3" stroke="#FFFFFF" stroke-width="1.2" fill="none"/>

  <!-- studio / floor mat circle (lower right) -->
  <rect x="175" y="135" width="195" height="55" stroke="#FFFFFF" stroke-width="1" fill="none" rx="3"/>
  <circle cx="272" cy="162" r="20" stroke="#FFFFFF" stroke-width="1" fill="none"/>

  <!-- studio bottom -->
  <rect x="180" y="210" width="80" height="60" stroke="#FFFFFF" stroke-width="1" fill="none" rx="3"/>
  <line x1="180" y1="240" x2="260" y2="240" stroke="#FFFFFF" stroke-width="0.8"/>

  <!-- squat rack bottom right -->
  <rect x="290" y="215" width="70" height="55" stroke="#FFFFFF" stroke-width="1" fill="none" rx="3"/>
  <line x1="305" y1="220" x2="305" y2="265" stroke="#FFFFFF" stroke-width="1.2"/>
  <line x1="345" y1="220" x2="345" y2="265" stroke="#FFFFFF" stroke-width="1.2"/>
  <line x1="305" y1="232" x2="345" y2="232" stroke="#FFFFFF" stroke-width="1"/>
</svg>