<svg viewBox="0 0 400 300" xmlns="http://www.w3.org/2000/svg">
  <circle cx="200" cy="150" r="100" fill="none" stroke="#FFFFFF" stroke-width="2" stroke-dasharray="6 6"/>

  <polygon points="200,48 210,62 190,62" fill="none" stroke="#FFFFFF" stroke-width="2"/>
  <polygon points="302,150 288,160 288,140" fill="none" stroke="#FFFFFF" stroke-width="2"/>
  <polygon points="200,252 190,238 210,238" fill="none" stroke="#FFFFFF" stroke-width="2"/>
  <polygon points="98,150 112,140 112,160" fill="none" stroke="#FFFFFF" stroke-width="2"/>

  <circle cx="200" cy="50" r="34" fill="none" stroke="#FFFFFF" stroke-width="2"/>
  <path d="M186 50 a14 9 0 0 1 28 0" fill="none" stroke="#FFFFFF" stroke-width="1.5"/>
  <line x1="200" y1="50" x2="200" y2="36" stroke="#FFFFFF" stroke-width="1.5"/>

  <circle cx="350" cy="150" r="34" fill="none" stroke="#FFFFFF" stroke-width="2"/>
  <circle cx="350" cy="150" r="13" fill="none" stroke="#FFFFFF" stroke-width="1.5"/>
  <line x1="350" y1="137" x2="350" y2="129" stroke="#FFFFFF" stroke-width="1.5"/>
  <line x1="350" y1="163" x2="350" y2="171" stroke="#FFFFFF" stroke-width="1.5"/>
  <line x1="337" y1="150" x2="329" y2="150" stroke="#FFFFFF" stroke-width="1.5"/>
  <line x1="363" y1="150" x2="371" y2="150" stroke="#FFFFFF" stroke-width="1.5"/>

  <circle cx="200" cy="250" r="34" fill="none" stroke="#FFFFFF" stroke-width="2"/>
  <polyline points="184,250 194,260 216,238" fill="none" stroke="#FFFFFF" stroke-width="2"/>

  <circle cx="50" cy="150" r="34" fill="none" stroke="#FFFFFF" stroke-width="2"/>
  <polygon points="42,138 58,138 58,162 42,162" fill="none" stroke="#FFFFFF" stroke-width="1.5"/>
  <polyline points="50,138 50,130 56,134" fill="none" stroke="#FFFFFF" stroke-width="1.5"/>
</svg>