<svg viewBox="0 0 400 300" xmlns="http://www.w3.org/2000/svg">
  <rect x="40" y="70" width="320" height="200" rx="16" ry="16" fill="none" stroke="#FFFFFF" stroke-width="2"/>
  <rect x="40" y="100" width="320" height="34" fill="none" stroke="#FFFFFF" stroke-width="1.5"/>
  <rect x="70" y="160" width="50" height="40" rx="5" ry="5" fill="none" stroke="#FFFFFF" stroke-width="1.5"/>
  <line x1="70" y1="173" x2="120" y2="173" stroke="#FFFFFF" stroke-width="1"/>
  <line x1="70" y1="187" x2="120" y2="187" stroke="#FFFFFF" stroke-width="1"/>
  <line x1="86" y1="160" x2="86" y2="200" stroke="#FFFFFF" stroke-width="1"/>
  <line x1="103" y1="160" x2="103" y2="200" stroke="#FFFFFF" stroke-width="1"/>
  <line x1="150" y1="165" x2="330" y2="165" stroke="#FFFFFF" stroke-width="1.5"/>
  <line x1="150" y1="185" x2="290" y2="185" stroke="#FFFFFF" stroke-width="1"/>
  <line x1="70" y1="232" x2="270" y2="232" stroke="#FFFFFF" stroke-width="1"/>
  <circle cx="310" cy="232" r="18" fill="none" stroke="#FFFFFF" stroke-width="1.5"/>
  <path d="M310 224 a8 8 0 1 0 0.1 0" fill="none" stroke="#FFFFFF" stroke-width="1"/>
  <line x1="295" y1="232" x2="325" y2="232" stroke="#FFFFFF" stroke-width="1"/>
</svg>