<svg viewBox="0 0 300 400" xmlns="http://www.w3.org/2000/svg"><rect x="70" y="40" width="160" height="320" rx="6" fill="none" stroke="#FFFFFF" stroke-width="2"/><line x1="70" y1="190" x2="230" y2="190" stroke="#FFFFFF" stroke-width="1.5"/><line x1="100" y1="230" x2="200" y2="230" stroke="#FFFFFF" stroke-width="1"/><line x1="100" y1="285" x2="200" y2="285" stroke="#FFFFFF" stroke-width="1"/><line x1="75" y1="360" x2="75" y2="372" stroke="#FFFFFF" stroke-width="2"/><line x1="225" y1="360" x2="225" y2="372" stroke="#FFFFFF" stroke-width="2"/><polygon points="70,55 10,75 10,345 70,345" fill="none" stroke="#FFFFFF" stroke-width="2"/><line x1="20" y1="130" x2="20" y2="170" stroke="#FFFFFF" stroke-width="2"/><rect x="110" y="100" width="16" height="60" rx="3" fill="none" stroke="#FFFFFF" stroke-width="1.5"/><line x1="116" y1="100" x2="116" y2="90" stroke="#FFFFFF" stroke-width="1.5"/><rect x="112" y="86" width="8" height="6" fill="none" stroke="#FFFFFF" stroke-width="1.5"/><rect x="140" y="110" width="16" height="50" rx="3" fill="none" stroke="#FFFFFF" stroke-width="1.5"/><line x1="148" y1="110" x2="148" y2="100" stroke="#FFFFFF" stroke-width="1.5"/><path d="M180,70 q40,5 30,40 l-15,-3" fill="none" stroke="#FFFFFF" stroke-width="1.5"/><rect x="170" y="105" width="14" height="55" rx="3" fill="none" stroke="#FFFFFF" stroke-width="1.5"/></svg>