<svg viewBox="0 0 300 400" xmlns="http://www.w3.org/2000/svg"><rect x="70" y="40" width="160" height="320" rx="6" fill="none" stroke="#FFFFFF" stroke-width="2"/><line x1="70" y1="190" x2="230" y2="190" stroke="#FFFFFF" stroke-width="1.5"/><line x1="100" y1="230" x2="200" y2="230" stroke="#FFFFFF" stroke-width="1"/><line x1="100" y1="285" x2="200" y2="285" stroke="#FFFFFF" stroke-width="1"/><line x1="75" y1="360" x2="75" y2="372" stroke="#FFFFFF" stroke-width="2"/><line x1="225" y1="360" x2="225" y2="372" stroke="#FFFFFF" stroke-width="2"/><polygon points="70,55 10,75 10,345 70,345" fill="none" stroke="#FFFFFF" stroke-width="2"/><line x1="20" y1="130" x2="20" y2="170" stroke="#FFFFFF" stroke-width="2"/><rect x="110" y="100" width="16" height="60" rx="3" fill="none" stroke="#FFFFFF" stroke-width="1.5"/><rect x="140" y="100" width="16" height="60" rx="3" fill="none" stroke="#FFFFFF" stroke-width="1.5"/><rect x="170" y="100" width="16" height="60" rx="3" fill="none" stroke="#FFFFFF" stroke-width="1.5"/><rect x="160" y="245" width="40" height="22" rx="3" fill="none" stroke="#FFFFFF" stroke-width="1.5"/><path d="M200,256 q30,2 28,30" fill="none" stroke="#FFFFFF" stroke-width="1.5"/><line x1="110" y1="248" x2="160" y2="248" stroke="#FFFFFF" stroke-width="1"/></svg>