<svg viewBox="0 0 400 300" xmlns="http://www.w3.org/2000/svg">
  <rect x="40" y="30" width="320" height="240" fill="none" stroke="#FFFFFF" stroke-width="2"/>
  <rect x="52" y="42" width="296" height="216" fill="none" stroke="#FFFFFF" stroke-width="1.5"/>
  <line x1="52" y1="120" x2="348" y2="120" stroke="#FFFFFF" stroke-width="1.5"/>
  <line x1="52" y1="190" x2="348" y2="190" stroke="#FFFFFF" stroke-width="1.5"/>

  <line x1="52" y1="112" x2="348" y2="112" stroke="#FFFFFF" stroke-width="1"/>
  <line x1="52" y1="182" x2="348" y2="182" stroke="#FFFFFF" stroke-width="1"/>

  <rect x="68" y="56" width="22" height="56" fill="none" stroke="#FFFFFF" stroke-width="1.2"/>
  <line x1="72" y1="56" x2="72" y2="48" stroke="#FFFFFF" stroke-width="1"/>
  <line x1="86" y1="56" x2="86" y2="48" stroke="#FFFFFF" stroke-width="1"/>
  <rect x="72" y="48" width="14" height="8" fill="none" stroke="#FFFFFF" stroke-width="1"/>
  <rect x="70" y="74" width="18" height="14" fill="none" stroke="#FFFFFF" stroke-width="0.8"/>

  <rect x="102" y="60" width="20" height="52" fill="none" stroke="#FFFFFF" stroke-width="1.2"/>
  <line x1="106" y1="60" x2="106" y2="50" stroke="#FFFFFF" stroke-width="1"/>
  <line x1="118" y1="60" x2="118" y2="50" stroke="#FFFFFF" stroke-width="1"/>
  <rect x="106" y="50" width="12" height="10" fill="none" stroke="#FFFFFF" stroke-width="1"/>

  <path d="M135 112 L135 78 Q135 70 142 66 L152 60 Q158 56 158 50 L158 112 Z" fill="none" stroke="#FFFFFF" stroke-width="1.2"/>

  <circle cx="200" cy="86" r="22" fill="none" stroke="#FFFFFF" stroke-width="1.2"/>
  <path d="M178 86 a22 14 0 0 0 44 0" fill="none" stroke="#FFFFFF" stroke-width="0.8"/>

  <rect x="245" y="58" width="24" height="54" fill="none" stroke="#FFFFFF" stroke-width="1.2"/>
  <line x1="250" y1="58" x2="250" y2="48" stroke="#FFFFFF" stroke-width="1"/>
  <line x1="264" y1="58" x2="264" y2="48" stroke="#FFFFFF" stroke-width="1"/>
  <rect x="250" y="48" width="14" height="10" fill="none" stroke="#FFFFFF" stroke-width="1"/>

  <rect x="290" y="64" width="34" height="48" fill="none" stroke="#FFFFFF" stroke-width="1.2"/>
  <line x1="290" y1="76" x2="324" y2="76" stroke="#FFFFFF" stroke-width="0.8"/>
  <circle cx="307" cy="58" r="6" fill="none" stroke="#FFFFFF" stroke-width="1"/>

  <rect x="70" y="132" width="40" height="46" fill="none" stroke="#FFFFFF" stroke-width="1.2"/>
  <line x1="70" y1="146" x2="110" y2="146" stroke="#FFFFFF" stroke-width="0.8"/>

  <rect x="130" y="128" width="26" height="50" fill="none" stroke="#FFFFFF" stroke-width="1.2"/>
  <line x1="135" y1="128" x2="135" y2="120" stroke="#FFFFFF" stroke-width="1"/>
  <line x1="151" y1="128" x2="151" y2="120" stroke="#FFFFFF" stroke-width="1"/>

  <rect x="176" y="134" width="22" height="44" fill="none" stroke="#FFFFFF" stroke-width="1.2"/>
  <rect x="206" y="134" width="22" height="44" fill="none" stroke="#FFFFFF" stroke-width="1.2"/>

  <path d="M250 178 L250 144 Q250 136 257 132 L267 126 L267 178 Z" fill="none" stroke="#FFFFFF" stroke-width="1.2"/>

  <rect x="290" y="130" width="34" height="48" fill="none" stroke="#FFFFFF" stroke-width="1.2"/>
  <line x1="290" y1="142" x2="324" y2="142" stroke="#FFFFFF" stroke-width="0.8"/>

  <circle cx="95" cy="222" r="20" fill="none" stroke="#FFFFFF" stroke-width="1.2"/>
  <rect x="135" y="200" width="28" height="48" fill="none" stroke="#FFFFFF" stroke-width="1.2"/>
  <rect x="183" y="204" width="20" height="44" fill="none" stroke="#FFFFFF" stroke-width="1.2"/>
  <rect x="215" y="204" width="20" height="44" fill="none" stroke="#FFFFFF" stroke-width="1.2"/>
  <rect x="260" y="200" width="60" height="48" fill="none" stroke="#FFFFFF" stroke-width="1.2"/>
  <line x1="290" y1="200" x2="290" y2="248" stroke="#FFFFFF" stroke-width="0.8"/>
</svg>