<svg viewBox="0 0 400 300" xmlns="http://www.w3.org/2000/svg">
  <rect x="40" y="30" width="320" height="230" fill="none" stroke="#FFFFFF" stroke-width="2"/>
  <line x1="70" y1="50" x2="70" y2="230" stroke="#FFFFFF" stroke-width="1.5"/>
  <line x1="70" y1="230" x2="340" y2="230" stroke="#FFFFFF" stroke-width="1.5"/>
  <line x1="70" y1="190" x2="340" y2="190" stroke="#FFFFFF" stroke-width="0.8"/>
  <line x1="70" y1="150" x2="340" y2="150" stroke="#FFFFFF" stroke-width="0.8"/>
  <line x1="70" y1="110" x2="340" y2="110" stroke="#FFFFFF" stroke-width="0.8"/>
  <line x1="70" y1="70" x2="340" y2="70" stroke="#FFFFFF" stroke-width="0.8"/>

  <rect x="95" y="90" width="30" height="140" fill="none" stroke="#FFFFFF" stroke-width="1.5"/>
  <rect x="150" y="120" width="30" height="110" fill="none" stroke="#FFFFFF" stroke-width="1.5"/>
  <rect x="205" y="160" width="30" height="70" fill="none" stroke="#FFFFFF" stroke-width="1.5"/>
  <rect x="260" y="135" width="30" height="95" fill="none" stroke="#FFFFFF" stroke-width="1.5"/>

  <polyline points="110,80 165,105 220,150 275,125 320,100" fill="none" stroke="#FFFFFF" stroke-width="1.2" stroke-dasharray="6 4"/>
  <circle cx="110" cy="80" r="3" fill="none" stroke="#FFFFFF" stroke-width="1"/>
  <circle cx="165" cy="105" r="3" fill="none" stroke="#FFFFFF" stroke-width="1"/>
  <circle cx="220" cy="150" r="3" fill="none" stroke="#FFFFFF" stroke-width="1"/>
  <circle cx="275" cy="125" r="3" fill="none" stroke="#FFFFFF" stroke-width="1"/>
  <circle cx="320" cy="100" r="3" fill="none" stroke="#FFFFFF" stroke-width="1"/>

  <circle cx="300" cy="55" r="22" fill="none" stroke="#FFFFFF" stroke-width="2"/>
  <line x1="285" y1="40" x2="315" y2="70" stroke="#FFFFFF" stroke-width="2"/>

  <line x1="40" y1="270" x2="360" y2="270" stroke="#FFFFFF" stroke-width="1" stroke-dasharray="3 3"/>
</svg>