<svg viewBox="0 0 400 300" xmlns="http://www.w3.org/2000/svg">
  <rect x="40" y="30" width="330" height="230" stroke="#FFFFFF" stroke-width="2" fill="none"/>
  <line x1="40" y1="260" x2="370" y2="260" stroke="#FFFFFF" stroke-width="2"/>
  <line x1="40" y1="30" x2="40" y2="260" stroke="#FFFFFF" stroke-width="2"/>
  <line x1="70" y1="40" x2="70" y2="260" stroke="#FFFFFF" stroke-width="1"/>
  <line x1="120" y1="40" x2="120" y2="260" stroke="#FFFFFF" stroke-width="1"/>
  <line x1="170" y1="40" x2="170" y2="260" stroke="#FFFFFF" stroke-width="1"/>
  <line x1="220" y1="40" x2="220" y2="260" stroke="#FFFFFF" stroke-width="1"/>
  <line x1="270" y1="40" x2="270" y2="260" stroke="#FFFFFF" stroke-width="1"/>
  <line x1="320" y1="40" x2="320" y2="260" stroke="#FFFFFF" stroke-width="1"/>
  <line x1="40" y1="80" x2="360" y2="80" stroke="#FFFFFF" stroke-width="1"/>
  <line x1="40" y1="120" x2="360" y2="120" stroke="#FFFFFF" stroke-width="1"/>
  <line x1="40" y1="160" x2="360" y2="160" stroke="#FFFFFF" stroke-width="1"/>
  <line x1="40" y1="200" x2="360" y2="200" stroke="#FFFFFF" stroke-width="1"/>
  <polyline points="55,70 95,95 135,90 175,130 215,160 255,200 295,225 340,245" stroke="#FFFFFF" stroke-width="2.5" fill="none"/>
  <circle cx="55" cy="70" r="3.5" stroke="#FFFFFF" stroke-width="1.5" fill="none"/>
  <circle cx="95" cy="95" r="3.5" stroke="#FFFFFF" stroke-width="1.5" fill="none"/>
  <circle cx="135" cy="90" r="3.5" stroke="#FFFFFF" stroke-width="1.5" fill="none"/>
  <circle cx="175" cy="130" r="3.5" stroke="#FFFFFF" stroke-width="1.5" fill="none"/>
  <circle cx="215" cy="160" r="3.5" stroke="#FFFFFF" stroke-width="1.5" fill="none"/>
  <circle cx="255" cy="200" r="3.5" stroke="#FFFFFF" stroke-width="1.5" fill="none"/>
  <circle cx="295" cy="225" r="3.5" stroke="#FFFFFF" stroke-width="1.5" fill="none"/>
  <circle cx="340" cy="245" r="3.5" stroke="#FFFFFF" stroke-width="1.5" fill="none"/>
  <polyline points="320,90 345,80 355,90" stroke="#FFFFFF" stroke-width="1.5" fill="none"/>
  <line x1="335" y1="80" x2="335" y2="100" stroke="#FFFFFF" stroke-width="1"/>
</svg>