<svg viewBox="0 0 400 300" xmlns="http://www.w3.org/2000/svg">
  <rect x="20" y="20" width="360" height="260" rx="6" fill="none" stroke="#FFFFFF" stroke-width="2"/>
  <line x1="20" y1="80" x2="380" y2="80" fill="none" stroke="#E0E0E0" stroke-width="1"/>
  <line x1="20" y1="160" x2="380" y2="160" fill="none" stroke="#E0E0E0" stroke-width="1"/>
  <line x1="20" y1="220" x2="380" y2="220" fill="none" stroke="#E0E0E0" stroke-width="1"/>
  <line x1="120" y1="20" x2="120" y2="280" fill="none" stroke="#E0E0E0" stroke-width="1"/>
  <line x1="240" y1="20" x2="240" y2="280" fill="none" stroke="#E0E0E0" stroke-width="1"/>
  <line x1="320" y1="20" x2="320" y2="280" fill="none" stroke="#E0E0E0" stroke-width="1"/>

  <path d="M70 230 L70 130 L180 130 L180 90 L300 90 L300 200" fill="none" stroke="#FFFFFF" stroke-width="2" stroke-dasharray="8 5"/>

  <g fill="none" stroke="#FFFFFF" stroke-width="2">
    <path d="M70 230 C58 215 58 205 70 198 C82 205 82 215 70 230 Z"/>
    <circle cx="70" cy="208" r="5"/>
  </g>
  <g fill="none" stroke="#FFFFFF" stroke-width="2">
    <path d="M180 130 C168 115 168 105 180 98 C192 105 192 115 180 130 Z"/>
    <circle cx="180" cy="108" r="5"/>
  </g>
  <g fill="none" stroke="#FFFFFF" stroke-width="2">
    <path d="M300 200 C288 185 288 175 300 168 C312 175 312 185 300 200 Z"/>
    <circle cx="300" cy="178" r="5"/>
  </g>
</svg>