<svg viewBox="0 0 400 300" xmlns="http://www.w3.org/2000/svg">
  <polygon points="40,90 320,90 360,60 360,200 320,230 40,230" fill="none" stroke="#FFFFFF" stroke-width="2"/>
  <polyline points="320,90 320,230" fill="none" stroke="#FFFFFF" stroke-width="2"/>
  <polyline points="40,90 80,60 360,60" fill="none" stroke="#FFFFFF" stroke-width="2"/>
  <polyline points="80,60 80,200 40,230" fill="none" stroke="#FFFFFF" stroke-width="1.5"/>
  <polyline points="80,200 320,200" fill="none" stroke="#FFFFFF" stroke-width="1.5"/>
  <line x1="60" y1="90" x2="60" y2="230" stroke="#FFFFFF" stroke-width="1"/>
  <line x1="80" y1="90" x2="80" y2="230" stroke="#FFFFFF" stroke-width="1"/>
  <line x1="100" y1="90" x2="100" y2="230" stroke="#FFFFFF" stroke-width="1"/>
  <line x1="120" y1="90" x2="120" y2="230" stroke="#FFFFFF" stroke-width="1"/>
  <line x1="140" y1="90" x2="140" y2="230" stroke="#FFFFFF" stroke-width="1"/>
  <line x1="160" y1="90" x2="160" y2="230" stroke="#FFFFFF" stroke-width="1"/>
  <line x1="180" y1="90" x2="180" y2="230" stroke="#FFFFFF" stroke-width="1"/>
  <line x1="200" y1="90" x2="200" y2="230" stroke="#FFFFFF" stroke-width="1"/>
  <line x1="220" y1="90" x2="220" y2="230" stroke="#FFFFFF" stroke-width="1"/>
  <line x1="240" y1="90" x2="240" y2="230" stroke="#FFFFFF" stroke-width="1"/>
  <line x1="260" y1="90" x2="260" y2="230" stroke="#FFFFFF" stroke-width="1"/>
  <line x1="280" y1="90" x2="280" y2="230" stroke="#FFFFFF" stroke-width="1"/>
  <line x1="300" y1="90" x2="300" y2="230" stroke="#FFFFFF" stroke-width="1"/>
  <rect x="305" y="100" width="3" height="120" fill="none" stroke="#FFFFFF" stroke-width="1"/>
  <rect x="312" y="100" width="3" height="120" fill="none" stroke="#FFFFFF" stroke-width="1"/>
  <circle cx="50" cy="100" r="3" fill="none" stroke="#FFFFFF" stroke-width="1"/>
  <circle cx="50" cy="220" r="3" fill="none" stroke="#FFFFFF" stroke-width="1"/>
  <circle cx="310" cy="100" r="3" fill="none" stroke="#FFFFFF" stroke-width="1"/>
  <circle cx="310" cy="220" r="3" fill="none" stroke="#FFFFFF" stroke-width="1"/>
</svg>