<svg viewBox="0 0 300 400" xmlns="http://www.w3.org/2000/svg">
  <polygon points="95,120 205,120 185,370 115,370" fill="none" stroke="#FFFFFF" stroke-width="2"/>
  <polygon points="88,95 212,95 205,120 95,120" fill="none" stroke="#FFFFFF" stroke-width="2"/>
  <line x1="88" y1="95" x2="88" y2="88" stroke="#FFFFFF" stroke-width="2"/>
  <line x1="212" y1="95" x2="212" y2="88" stroke="#FFFFFF" stroke-width="2"/>
  <ellipse cx="150" cy="88" rx="62" ry="10" fill="none" stroke="#FFFFFF" stroke-width="2"/>
  <ellipse cx="150" cy="84" rx="62" ry="9" fill="none" stroke="#E0E0E0" stroke-width="1.5"/>
  <line x1="170" y1="84" x2="178" y2="30" fill="none" stroke="#FFFFFF" stroke-width="2"/>
  <line x1="184" y1="84" x2="192" y2="30" fill="none" stroke="#FFFFFF" stroke-width="2"/>
  <line x1="178" y1="30" x2="192" y2="30" stroke="#FFFFFF" stroke-width="2"/>
  <line x1="108" y1="135" x2="120" y2="355" stroke="#E0E0E0" stroke-width="1"/>
  <line x1="135" y1="130" x2="142" y2="360" stroke="#E0E0E0" stroke-width="1"/>
  <line x1="165" y1="130" x2="158" y2="360" stroke="#E0E0E0" stroke-width="1"/>
  <line x1="192" y1="135" x2="180" y2="355" stroke="#E0E0E0" stroke-width="1"/>
  <line x1="100" y1="200" x2="200" y2="200" stroke="#E0E0E0" stroke-width="1"/>
</svg>