<svg viewBox="0 0 400 300" xmlns="http://www.w3.org/2000/svg">
  <!-- Left plan card -->
  <rect x="30" y="50" width="100" height="210" rx="6" fill="none" stroke="#FFFFFF" stroke-width="2"/>
  <!-- Middle plan card (highlighted) -->
  <rect x="150" y="35" width="100" height="225" rx="6" fill="none" stroke="#FFFFFF" stroke-width="2"/>
  <!-- Right plan card -->
  <rect x="270" y="50" width="100" height="210" rx="6" fill="none" stroke="#FFFFFF" stroke-width="2"/>

  <!-- LEFT CARD details -->
  <line x1="45" y1="82" x2="115" y2="82" stroke="#FFFFFF" stroke-width="1.5"/>
  <line x1="55" y1="66" x2="105" y2="66" stroke="#FFFFFF" stroke-width="1.5"/>
  <!-- price -->
  <path d="M50 105 l8 -16 l8 16" fill="none" stroke="#FFFFFF" stroke-width="1.5"/>
  <line x1="70" y1="105" x2="110" y2="105" stroke="#FFFFFF" stroke-width="1.2"/>
  <!-- feature rows -->
  <circle cx="50" cy="130" r="3" fill="none" stroke="#FFFFFF" stroke-width="1"/>
  <line x1="60" y1="130" x2="115" y2="130" stroke="#FFFFFF" stroke-width="1"/>
  <circle cx="50" cy="150" r="3" fill="none" stroke="#FFFFFF" stroke-width="1"/>
  <line x1="60" y1="150" x2="115" y2="150" stroke="#FFFFFF" stroke-width="1"/>
  <circle cx="50" cy="170" r="3" fill="none" stroke="#FFFFFF" stroke-width="1"/>
  <line x1="60" y1="170" x2="100" y2="170" stroke="#FFFFFF" stroke-width="1"/>
  <!-- button -->
  <rect x="45" y="225" width="70" height="22" rx="4" fill="none" stroke="#FFFFFF" stroke-width="1.5"/>

  <!-- MIDDLE CARD details -->
  <rect x="170" y="22" width="60" height="18" rx="9" fill="none" stroke="#FFFFFF" stroke-width="1.2"/>
  <line x1="165" y1="70" x2="235" y2="70" stroke="#FFFFFF" stroke-width="1.5"/>
  <line x1="175" y1="55" x2="225" y2="55" stroke="#FFFFFF" stroke-width="1.5"/>
  <path d="M170 95 l8 -16 l8 16" fill="none" stroke="#FFFFFF" stroke-width="1.5"/>
  <line x1="190" y1="95" x2="230" y2="95" stroke="#FFFFFF" stroke-width="1.2"/>
  <path d="M167 120 l3 3 l5 -6" fill="none" stroke="#FFFFFF" stroke-width="1.2"/>
  <line x1="180" y1="120" x2="235" y2="120" stroke="#FFFFFF" stroke-width="1"/>
  <path d="M167 142 l3 3 l5 -6" fill="none" stroke="#FFFFFF" stroke-width="1.2"/>
  <line x1="180" y1="142" x2="235" y2="142" stroke="#FFFFFF" stroke-width="1"/>
  <path d="M167 164 l3 3 l5 -6" fill="none" stroke="#FFFFFF" stroke-width="1.2"/>
  <line x1="180" y1="164" x2="225" y2="164" stroke="#FFFFFF" stroke-width="1"/>
  <path d="M167 186 l3 3 l5 -6" fill="none" stroke="#FFFFFF" stroke-width="1.2"/>
  <line x1="180" y1="186" x2="220" y2="186" stroke="#FFFFFF" stroke-width="1"/>
  <rect x="165" y="222" width="70" height="24" rx="4" fill="none" stroke="#FFFFFF" stroke-width="2"/>

  <!-- RIGHT CARD details -->
  <line x1="285" y1="82" x2="355" y2="82" stroke="#FFFFFF" stroke-width="1.5"/>
  <line x1="295" y1="66" x2="345" y2="66" stroke="#FFFFFF" stroke-width="1.5"/>
  <path d="M290 105 l8 -16 l8 16" fill="none" stroke="#FFFFFF" stroke-width="1.5"/>
  <line x1="310" y1="105" x2="350" y2="105" stroke="#FFFFFF" stroke-width="1.2"/>
  <circle cx="290" cy="130" r="3" fill="none" stroke="#FFFFFF" stroke-width="1"/>
  <line x1="300" y1="130" x2="355" y2="130" stroke="#FFFFFF" stroke-width="1"/>
  <circle cx="290" cy="150" r="3" fill="none" stroke="#FFFFFF" stroke-width="1"/>
  <line x1="300" y1="150" x2="355" y2="150" stroke="#FFFFFF" stroke-width="1"/>
  <circle cx="290" cy="170" r="3" fill="none" stroke="#FFFFFF" stroke-width="1"/>
  <line x1="300" y1="170" x2="345" y2="170" stroke="#FFFFFF" stroke-width="1"/>
  <circle cx="290" cy="190" r="3" fill="none" stroke="#FFFFFF" stroke-width="1"/>
  <line x1="300" y1="190" x2="340" y2="190" stroke="#FFFFFF" stroke-width="1"/>
  <rect x="285" y="225" width="70" height="22" rx="4" fill="none" stroke="#FFFFFF" stroke-width="1.5"/>
</svg>