<svg viewBox="0 0 300 400" xmlns="http://www.w3.org/2000/svg">
  <rect x="50" y="20" width="200" height="360" rx="8" fill="none" stroke="#FFFFFF" stroke-width="2"/>
  <rect x="65" y="35" width="120" height="250" rx="4" fill="none" stroke="#FFFFFF" stroke-width="1.5"/>
  <line x1="65" y1="85" x2="185" y2="85" stroke="#E0E0E0" stroke-width="1"/>
  <line x1="65" y1="135" x2="185" y2="135" stroke="#E0E0E0" stroke-width="1"/>
  <line x1="65" y1="185" x2="185" y2="185" stroke="#E0E0E0" stroke-width="1"/>
  <line x1="65" y1="235" x2="185" y2="235" stroke="#E0E0E0" stroke-width="1"/>
  <rect x="80" y="50" width="16" height="26" rx="2" fill="none" stroke="#E0E0E0" stroke-width="1"/>
  <rect x="110" y="50" width="16" height="26" rx="2" fill="none" stroke="#E0E0E0" stroke-width="1"/>
  <rect x="140" y="50" width="16" height="26" rx="2" fill="none" stroke="#E0E0E0" stroke-width="1"/>
  <rect x="80" y="100" width="16" height="26" rx="2" fill="none" stroke="#E0E0E0" stroke-width="1"/>
  <rect x="110" y="100" width="16" height="26" rx="2" fill="none" stroke="#E0E0E0" stroke-width="1"/>
  <rect x="140" y="100" width="16" height="26" rx="2" fill="none" stroke="#E0E0E0" stroke-width="1"/>
  <rect x="80" y="150" width="16" height="26" rx="2" fill="none" stroke="#E0E0E0" stroke-width="1"/>
  <rect x="110" y="150" width="16" height="26" rx="2" fill="none" stroke="#E0E0E0" stroke-width="1"/>
  <rect x="140" y="150" width="16" height="26" rx="2" fill="none" stroke="#E0E0E0" stroke-width="1"/>
  <rect x="80" y="200" width="16" height="26" rx="2" fill="none" stroke="#E0E0E0" stroke-width="1"/>
  <rect x="110" y="200" width="16" height="26" rx="2" fill="none" stroke="#E0E0E0" stroke-width="1"/>
  <rect x="140" y="200" width="16" height="26" rx="2" fill="none" stroke="#E0E0E0" stroke-width="1"/>
  <rect x="80" y="250" width="16" height="26" rx="2" fill="none" stroke="#E0E0E0" stroke-width="1"/>
  <rect x="110" y="250" width="16" height="26" rx="2" fill="none" stroke="#E0E0E0" stroke-width="1"/>
  <rect x="140" y="250" width="16" height="26" rx="2" fill="none" stroke="#E0E0E0" stroke-width="1"/>
  <rect x="200" y="40" width="38" height="20" rx="2" fill="none" stroke="#E0E0E0" stroke-width="1"/>
  <circle cx="208" cy="80" r="6" fill="none" stroke="#E0E0E0" stroke-width="1"/>
  <circle cx="230" cy="80" r="6" fill="none" stroke="#E0E0E0" stroke-width="1"/>
  <circle cx="208" cy="100" r="6" fill="none" stroke="#E0E0E0" stroke-width="1"/>
  <circle cx="230" cy="100" r="6" fill="none" stroke="#E0E0E0" stroke-width="1"/>
  <circle cx="208" cy="120" r="6" fill="none" stroke="#E0E0E0" stroke-width="1"/>
  <circle cx="230" cy="120" r="6" fill="none" stroke="#E0E0E0" stroke-width="1"/>
  <line x1="200" y1="150" x2="238" y2="150" stroke="#E0E0E0" stroke-width="1"/>
  <rect x="206" y="160" width="26" height="40" rx="2" fill="none" stroke="#E0E0E0" stroke-width="1"/>
  <line x1="219" y1="160" x2="219" y2="200" stroke="#E0E0E0" stroke-width="1"/>
  <rect x="65" y="300" width="170" height="60" rx="4" fill="none" stroke="#FFFFFF" stroke-width="1.5"/>
  <line x1="65" y1="320" x2="235" y2="320" stroke="#E0E0E0" stroke-width="1"/>
</svg>