<svg viewBox="0 0 400 300" xmlns="http://www.w3.org/2000/svg" fill="none">

  <!-- Outer warehouse silhouette / walls -->
  <polyline points="10,280 10,80 200,20 390,80 390,280 10,280" stroke="#FFFFFF" stroke-width="2"/>

  <!-- Roof ridge line -->
  <line x1="200" y1="20" x2="200" y2="80" stroke="#FFFFFF" stroke-width="1.5"/>

  <!-- Left roof panel -->
  <line x1="10" y1="80" x2="200" y2="20" stroke="#FFFFFF" stroke-width="2"/>
  <!-- Right roof panel -->
  <line x1="390" y1="80" x2="200" y2="20" stroke="#FFFFFF" stroke-width="2"/>

  <!-- Ceiling / top interior line -->
  <line x1="10" y1="80" x2="390" y2="80" stroke="#E0E0E0" stroke-width="1.5"/>

  <!-- Roof trusses -->
  <!-- Truss 1 -->
  <polyline points="60,80 130,52 200,80" stroke="#E0E0E0" stroke-width="1"/>
  <line x1="130" y1="52" x2="130" y2="80" stroke="#E0E0E0" stroke-width="1"/>
  <line x1="95" y1="66" x2="95" y2="80" stroke="#E0E0E0" stroke-width="1"/>
  <line x1="165" y1="66" x2="165" y2="80" stroke="#E0E0E0" stroke-width="1"/>

  <!-- Truss 2 -->
  <polyline points="200,80 270,52 340,80" stroke="#E0E0E0" stroke-width="1"/>
  <line x1="270" y1="52" x2="270" y2="80" stroke="#E0E0E0" stroke-width="1"/>
  <line x1="235" y1="66" x2="235" y2="80" stroke="#E0E0E0" stroke-width="1"/>
  <line x1="305" y1="66" x2="305" y2="80" stroke="#E0E0E0" stroke-width="1"/>

  <!-- Floor line -->
  <line x1="10" y1="260" x2="390" y2="260" stroke="#E0E0E0" stroke-width="1"/>

  <!-- Perspective depth lines (floor perspective) -->
  <line x1="10" y1="260" x2="200" y2="200" stroke="#E0E0E0" stroke-width="1"/>
  <line x1="390" y1="260" x2="200" y2="200" stroke="#E0E0E0" stroke-width="1"/>
  <line x1="10" y1="280" x2="200" y2="200" stroke="#E0E0E0" stroke-width="0.8"/>
  <line x1="390" y1="280" x2="200" y2="200" stroke="#E0E0E0" stroke-width="0.8"/>

  <!-- Left shelving unit -->
  <rect x="20" y="140" width="50" height="115" stroke="#FFFFFF" stroke-width="1.5"/>
  <!-- Shelf levels -->
  <line x1="20" y1="165" x2="70" y2="165" stroke="#E0E0E0" stroke-width="1"/>
  <line x1="20" y1="190" x2="70" y2="190" stroke="#E0E0E0" stroke-width="1"/>
  <line x1="20" y1="215" x2="70" y2="215" stroke="#E0E0E0" stroke-width="1"/>
  <line x1="20" y1="240" x2="70" y2="240" stroke="#E0E0E0" stroke-width="1"/>
  <!-- Boxes on shelves left -->
  <rect x="23" y="147" width="15" height="16" stroke="#E0E0E0" stroke-width="1"/>
  <rect x="41" y="147" width="15" height="16" stroke="#E0E0E0" stroke-width="1"/>
  <rect x="23" y="172" width="20" height="16" stroke="#E0E0E0" stroke-width="1"/>
  <rect x="47" y="172" width="18" height="16" stroke="#E0E0E0" stroke-width="1"/>
  <rect x="23" y="197" width="15" height="16" stroke="#E0E0E0" stroke-width="1"/>
  <rect x="41" y="197" width="22" height="16" stroke="#E0E0E0" stroke-width="1"/>
  <rect x="23" y="222" width="18" height="16" stroke="#E0E0E0" stroke-width="1"/>

  <!-- Second shelving unit left-center -->
  <rect x="90" y="130" width="55" height="125" stroke="#FFFFFF" stroke-width="1.5"/>
  <!-- Shelf levels -->
  <line x1="90" y1="158" x2="145" y2="158" stroke="#E0E0E0" stroke-width="1"/>
  <line x1="90" y1="186" x2="145" y2="186" stroke="#E0E0E0" stroke-width="1"/>
  <line x1="90" y1="214" x2="145" y2="214" stroke="#E0E0E0" stroke-width="1"/>
  <line x1="90" y1="240" x2="145" y2="240" stroke="#E0E0E0" stroke-width="1"/>
  <!-- Boxes -->
  <rect x="93" y="136" width="18" height="20" stroke="#E0E0E0" stroke-width="1"/>
  <rect x="114" y="136" width="18" height="20" stroke="#E0E0E0" stroke-width="1"/>
  <rect x="93" y="162" width="22" height="22" stroke="#E0E0E0" stroke-width="1"/>
  <rect x="118" y="162" width="20" height="22" stroke="#E0E0E0" stroke-width="1"/>
  <rect x="93" y="190" width="18" height="22" stroke="#E0E0E0" stroke-width="1"/>
  <rect x="115" y="190" width="22" height="22" stroke="#E0E0E0" stroke-width="1"/>
  <rect x="93" y="218" width="20" height="20" stroke="#E0E0E0" stroke-width="1"/>

  <!-- Center aisle gap (implied open space 155-245) -->

  <!-- Third shelving unit right-center -->
  <rect x="255" y="130" width="55" height="125" stroke="#FFFFFF" stroke-width="1.5"/>
  <!-- Shelf levels -->
  <line x1="255" y1="158" x2="310" y2="158" stroke="#E0E0E0" stroke-width="1"/>
  <line x1="255" y1="186" x2="310" y2="186" stroke="#E0E0E0" stroke-width="1"/>
  <line x1="255" y1="214" x2="310" y2="214" stroke="#E0E0E0" stroke-width="1"/>
  <line x1="255" y1="240" x2="310" y2="240" stroke="#E0E0E0" stroke-width="1"/>
  <!-- Boxes -->
  <rect x="258" y="136" width="20" height="20" stroke="#E0E0E0" stroke-width="1"/>
  <rect x="281" y="136" width="20" height="20" stroke="#E0E0E0" stroke-width="1"/>
  <rect x="258" y="162" width="22" height="22" stroke="#E0E0E0" stroke-width="1"/>
  <rect x="284" y="162" width="18" height="22" stroke="#E0E0E0" stroke-width="1"/>
  <rect x="258" y="190" width="18" height="22" stroke="#E0E0E0" stroke-width="1"/>
  <rect x="280" y="190" width="22" height="22" stroke="#E0E0E0" stroke-width="1"/>
  <rect x="258" y="218" width="20" height="20" stroke="#E0E0E0" stroke-width="1"/>
  <rect x="282" y="218" width="20" height="20" stroke="#E0E0E0" stroke-width="1"/>

  <!-- Right shelving unit -->
  <rect x="330" y="140" width="55" height="115" stroke="#FFFFFF" stroke-width="1.5"/>
  <!-- Shelf levels -->
  <line x1="330" y1="165" x2="385" y2="165" stroke="#E0E0E0" stroke-width="1"/>
  <line x1="330" y1="190" x2="385" y2="190" stroke="#E0E0E0" stroke-width="1"/>
  <line x1="330" y1="215" x2="385" y2="215" stroke="#E0E0E0" stroke-width="1"/>
  <line x1="330" y1="240" x2="385" y2="240" stroke="#E0E0E0" stroke-width="1"/>
  <!-- Boxes -->
  <rect x="333" y="147" width="18" height="16" stroke="#E0E0E0" stroke-width="1"/>
  <rect x="354" y="147" width="18" height="16" stroke="#E0E0E0" stroke-width="1"/>
  <rect x="333" y="172" width="22" height="16" stroke="#E0E0E0" stroke-width="1"/>
  <rect x="358" y="172" width="18" height="16" stroke="#E0E0E0" stroke-width="1"/>
  <rect x="333" y="197" width="18" height="16" stroke="#E0E0E0" stroke-width="1"/>
  <rect x="355" y="197" width="20" height="16" stroke="#E0E0E0" stroke-width="1"/>
  <rect x="333" y="222" width="22" height="16" stroke="#E0E0E0" stroke-width="1"/>
  <rect x="358" y="222" width="18" height="16" stroke="#E0E0E0" stroke-width="1"/>

  <!-- Forklift silhouette in center aisle -->
  <!-- Body -->
  <rect x="173" y="220" width="36" height="28" stroke="#FFFFFF" stroke-width="1.5"/>
  <!-- Mast -->
  <rect x="163" y="185" width="8" height="50" stroke="#FFFFFF" stroke-width="1.5"/>
  <!-- Forks -->
  <line x1="155" y1="228" x2="171" y2="228" stroke="#FFFFFF" stroke-width="1.5"/>
  <line x1="155" y1="235" x2="171" y2="235" stroke="#FFFFFF" stroke-width="1.5"/>
  <!-- Carriage cross bar -->
  <line x1="163" y1="218" x2="171" y2="218" stroke="#E0E0E0" stroke-width="1"/>
  <!-- Wheel left -->
  <circle cx="180" cy="250" r="6" stroke="#E0E0E0" stroke-width="1"/>
  <!-- Wheel right -->
  <circle cx="202" cy="250" r="6" stroke="#E0E0E0" stroke-width="1"/>
  <!-- Overhead guard -->
  <rect x="173" y="215" width="36" height="8" stroke="#E0E0E0" stroke-width="1"/>

  <!-- Stacked pallets on floor center -->
  <rect x="155" y="245" width="30" height="10" stroke="#E0E0E0" stroke-width="1"/>
  <line x1="162" y1="245" x2="162" y2="255" stroke="#E0E0E0" stroke-width="1"/>
  <line x1="170" y1="245" x2="170" y2="255" stroke="#E0E0E0" stroke-width="1"/>
  <line x1="178" y1="245" x2="178" y2="255" stroke="#E0E0E0" stroke-width="1"/>

  <!-- Loading dock door on right wall -->
  <rect x="358" y="195" width="30" height="60" stroke="#FFFFFF" stroke-width="1.5"/>
  <!-- Door horizontal panels -->
  <line x1="358" y1="210" x2="388" y2="210" stroke="#E0E0E0" stroke-width="1"/>
  <line x1="358" y1="225" x2="388" y2="225" stroke="#E0E0E0" stroke-width="1"/>
  <line x1="358" y1="240" x2="388" y2="240" stroke="#E0E0E0" stroke-width="1"/>

  <!-- Hanging light fixtures from ceiling -->
  <line x1="100" y1="80" x2="100" y2="105" stroke="#E0E0E0" stroke-width="1"/>
  <line x1="85" y1="105" x2="115" y2="105" stroke="#E0E0E0" stroke-width="1.5"/>
  <line x1="85" y1="105" x2="85" y2="115" stroke="#E0E0E0" stroke-width="1"/>
  <line x1="115" y1="105" x2="115" y2="115" stroke="#E0E0E0" stroke-width="1"/>
  <line x1="80" y1="115" x2="120" y2="115" stroke="#E0E0E0" stroke-width="1.5"/>

  <line x1="200" y1="80" x2="200" y2="105" stroke="#E0E0E0" stroke-width="1"/>
  <line x1="185" y1="105" x2="215" y2="105" stroke="#E0E0E0" stroke-width="1.5"/>
  <line x1="185" y1="105" x2="185" y2="115" stroke="#E0E0E0" stroke-width="1"/>
  <line x1="215" y1="105" x2="215" y2="115" stroke="#E0E0E0" stroke-width="1"/>
  <line x1="180" y1="115" x2="220" y2="115" stroke="#E0E0E0" stroke-width="1.5"/>

  <line x1="300" y1="80" x2="300" y2="105" stroke="#E0E0E0" stroke-width="1"/>
  <line x1="285" y1="105" x2="315" y2="105" stroke="#E0E0E0" stroke-width="1.5"/>
  <line x1="285" y1="105" x2="285" y2="115" stroke="#E0E0E0" stroke-width="1"/>
  <line x1="315" y1="105" x2="315" y2="115" stroke="#E0E0E0" stroke-width="1"/>
  <line x1="280" y1="115" x2="320" y2="115" stroke="#E0E0E0" stroke-width="1.5"/>

</svg>