<svg viewBox="0 0 400 300" xmlns="http://www.w3.org/2000/svg"><g fill="none" stroke="#FFFFFF" stroke-width="2"><rect x="60" y="210" width="280" height="14"/><line x1="90" y1="224" x2="90" y2="260"/><line x1="310" y1="224" x2="310" y2="260"/><rect x="150" y="176" width="100" height="20" rx="3"/><line x1="160" y1="196" x2="160" y2="210" stroke-width="1"/><line x1="240" y1="196" x2="240" y2="210" stroke-width="1"/><path d="M185 116 v-30 h6 v-14 h18 v14 h6 v30"/><line x1="185" y1="100" x2="215" y2="100" stroke-width="1"/><line x1="250" y1="186" x2="330" y2="186" stroke-width="1"/><line x1="330" y1="186" x2="330" y2="150" stroke-width="1"/><circle cx="330" cy="140" r="10"/><line x1="322" y1="132" x2="338" y2="148"/><line x1="338" y1="132" x2="322" y2="148"/><line x1="150" y1="186" x2="135" y2="178" stroke-width="1"/><line x1="250" y1="186" x2="265" y2="178" stroke-width="1"/></g></svg>