<svg viewBox="0 0 400 300" xmlns="http://www.w3.org/2000/svg"><g fill="none" stroke="#3B2A1E" stroke-width="2" stroke-linecap="round"><path d="M30 150 q20 -12 40 0 q20 12 40 0 q20 -12 40 0 q20 12 40 0 q20 -12 40 0 q20 12 40 0 q20 -12 40 0"/><circle cx="50" cy="148" r="9" fill="#d16937"/><circle cx="130" cy="152" r="9" fill="#d16937"/><circle cx="210" cy="148" r="9" fill="#d16937"/><circle cx="290" cy="152" r="9" fill="#d16937"/><circle cx="370" cy="148" r="9" fill="#d16937"/></g><g fill="none" stroke="#3B2A1E" stroke-width="2.5" stroke-linecap="round"><path d="M210 60 l30 70" /><path d="M250 60 l-30 70"/><circle cx="214" cy="55" r="9"/><circle cx="246" cy="55" r="9"/><path d="M240 130 l8 6"/><path d="M220 130 l-8 6"/></g></svg>