<svg viewBox="0 0 400 300" xmlns="http://www.w3.org/2000/svg"><g fill="none" stroke="#3B2A1E" stroke-width="2" stroke-linecap="round"><path d="M30 150 q20 -12 40 0 q20 12 40 0 q20 -12 40 0 q20 12 40 0 q20 -12 40 0 q20 12 40 0 q20 -12 40 0"/><circle cx="50" cy="148" r="9" fill="#d16937"/><circle cx="130" cy="152" r="9" fill="#d16937"/><circle cx="210" cy="148" r="9" fill="#d16937"/><circle cx="290" cy="152" r="9" fill="#d16937"/><circle cx="370" cy="148" r="9" fill="#d16937"/></g><g fill="none" stroke="#3B2A1E" stroke-width="2.5" stroke-linecap="round"><path d="M222 60 l18 78" /><path d="M238 60 l-18 78"/><circle cx="226" cy="55" r="9"/><circle cx="234" cy="55" r="9"/><path d="M240 138 l6 8"/><path d="M220 138 l-6 8"/></g></svg>