<svg viewBox="0 0 400 300" xmlns="http://www.w3.org/2000/svg"><path d="M200 100 q25 -12 38 18 q35 5 28 38 q22 18 -8 38 q-8 28 -40 16 q-32 14 -48 -14 q-32 -2 -25 -34 q-18 -26 14 -40 q12 -22 41 -10 z" fill="#d16937" fill-opacity="0.4" stroke="#3B2A1E" stroke-width="2.5"/><path d="M178 140 l14 6 m-12 16 l16 -2 m6 -22 l10 14 m-30 8 l8 12" fill="none" stroke="#3B2A1E" stroke-width="1.3"/><path d="M200 100 q-10 30 0 60 m20 -40 q-30 10 -40 30" fill="none" stroke="#3B2A1E" stroke-width="1" stroke-opacity="0.6"/></svg>