<svg viewBox="0 0 300 400" xmlns="http://www.w3.org/2000/svg">
  <g fill="none" stroke="#3B2A1E" stroke-width="2.4" stroke-linecap="round" stroke-linejoin="round">
    <!-- outer clove silhouette: teardrop/garlic clove shape -->
    <path d="M150 40 C112 60 90 110 86 170 C82 230 96 300 130 345 C145 365 165 372 175 360 C200 330 218 270 220 200 C222 130 205 75 175 48 C168 42 159 36 150 40 Z" fill="#d16937" fill-opacity="0.18"/>
  </g>

  <!-- pointed tip detail -->
  <g fill="none" stroke="#3B2A1E" stroke-width="1.6" stroke-linecap="round" stroke-linejoin="round">
    <path d="M150 40 C152 50 153 60 152 70"/>
    <path d="M175 48 C171 58 168 66 167 74"/>
  </g>

  <!-- inner papery skin (offset inner outline) -->
  <g fill="none" stroke="#3B2A1E" stroke-width="1.4" stroke-linecap="round" stroke-linejoin="round">
    <path d="M152 72 C120 92 102 138 99 188 C96 240 108 298 136 336 C148 352 162 356 170 347 C192 320 206 264 208 202 C210 142 196 92 168 70 C162 66 157 68 152 72 Z" fill="#d16937" fill-opacity="0.28"/>
  </g>

  <!-- central core / vertical division line -->
  <g fill="none" stroke="#3B2A1E" stroke-width="1.3" stroke-linecap="round" stroke-linejoin="round">
    <path d="M150 78 C148 150 149 250 152 340"/>

    <!-- left flesh layer lines -->
    <path d="M150 100 C128 110 116 145 113 185"/>
    <path d="M150 150 C125 158 114 195 112 235"/>
    <path d="M151 210 C128 218 118 255 118 290"/>
    <path d="M151 270 C133 278 126 308 130 332"/>

    <!-- right flesh layer lines -->
    <path d="M150 100 C172 108 186 142 189 182"/>
    <path d="M150 150 C176 158 188 195 190 235"/>
    <path d="M151 210 C174 218 186 255 184 290"/>
    <path d="M151 270 C169 278 178 308 172 332"/>
  </g>

  <!-- subtle germ sprout in center -->
  <g fill="none" stroke="#3B2A1E" stroke-width="1.2" stroke-linecap="round" stroke-linejoin="round">
    <path d="M150 200 C146 220 147 250 150 275"/>
    <path d="M150 200 C154 222 153 252 150 275" stroke-opacity="0.6"/>
  </g>
</svg>