<svg viewBox="0 0 400 300" xmlns="http://www.w3.org/2000/svg">
  <!-- Gas pedal outer silhouette -->
  <path d="M90 230 Q85 150 120 90 Q135 65 165 65 Q175 65 178 80 L185 130 Q190 175 175 215 Q168 235 140 240 Q105 245 90 230 Z" fill="#d16937" fill-opacity="0.25" stroke="#3B2A1E" stroke-width="2.5" stroke-linejoin="round"/>
  <!-- Pedal mounting arm -->
  <path d="M165 65 Q150 55 130 58 Q115 62 110 78" fill="none" stroke="#3B2A1E" stroke-width="2"/>
  <!-- Pivot circle -->
  <circle cx="118" cy="70" r="7" fill="none" stroke="#3B2A1E" stroke-width="2"/>
  <circle cx="118" cy="70" r="2.5" fill="#3B2A1E"/>
  <!-- Pedal ribbed grip lines -->
  <path d="M110 110 L168 102" fill="none" stroke="#3B2A1E" stroke-width="1.5"/>
  <path d="M106 130 L172 122" fill="none" stroke="#3B2A1E" stroke-width="1.5"/>
  <path d="M103 150 L176 143" fill="none" stroke="#3B2A1E" stroke-width="1.5"/>
  <path d="M101 170 L177 164" fill="none" stroke="#3B2A1E" stroke-width="1.5"/>
  <path d="M100 190 L174 185" fill="none" stroke="#3B2A1E" stroke-width="1.5"/>
  <path d="M101 210 L168 206" fill="none" stroke="#3B2A1E" stroke-width="1.5"/>
  <!-- Floor reference line -->
  <path d="M70 245 Q150 250 240 246" fill="none" stroke="#3B2A1E" stroke-width="2" stroke-dasharray="6 5"/>

  <!-- Motion / push arrow -->
  <path d="M205 100 Q235 120 230 150" fill="none" stroke="#3B2A1E" stroke-width="2"/>
  <polygon points="230 150 224 138 238 142" fill="#3B2A1E"/>

  <!-- Vinegar splash droplet main blob -->
  <path d="M300 110 Q330 95 350 120 Q368 142 350 168 Q335 188 308 182 Q282 176 278 148 Q276 124 300 110 Z" fill="#d16937" fill-opacity="0.3" stroke="#3B2A1E" stroke-width="2.5" stroke-linejoin="round"/>
  <!-- Splash droplets flying out -->
  <circle cx="368" cy="100" r="6" fill="#d16937" fill-opacity="0.3" stroke="#3B2A1E" stroke-width="2"/>
  <circle cx="380" cy="135" r="4" fill="none" stroke="#3B2A1E" stroke-width="1.8"/>
  <circle cx="360" cy="200" r="5" fill="#d16937" fill-opacity="0.3" stroke="#3B2A1E" stroke-width="2"/>
  <circle cx="300" cy="80" r="3.5" fill="none" stroke="#3B2A1E" stroke-width="1.8"/>
  <circle cx="262" cy="135" r="4" fill="none" stroke="#3B2A1E" stroke-width="1.8"/>
  <path d="M330 200 Q333 212 328 220" fill="none" stroke="#3B2A1E" stroke-width="2"/>
  <circle cx="326" cy="226" r="3" fill="#3B2A1E"/>
  <!-- splash spike accents -->
  <path d="M348 118 L360 108" fill="none" stroke="#3B2A1E" stroke-width="1.5"/>
  <path d="M352 160 L366 165" fill="none" stroke="#3B2A1E" stroke-width="1.5"/>
  <!-- liquid swirl inside blob -->
  <path d="M298 140 Q315 130 330 145 Q340 156 328 165" fill="none" stroke="#3B2A1E" stroke-width="1.5"/>
</svg>