<svg viewBox="0 0 300 400" xmlns="http://www.w3.org/2000/svg"><g fill="none" stroke="#3B2A1E" stroke-width="2" stroke-linecap="round" stroke-linejoin="round"><path d="M85 130 Q83 250 88 330 Q90 360 150 362 Q210 360 212 330 Q217 250 215 130" fill="#d16937" fill-opacity="0.18"/><path d="M85 130 Q84 115 95 112 L205 112 Q216 115 215 130"/><path d="M90 200 Q150 195 210 200" stroke-width="1.2" stroke-opacity="0.5"/><path d="M92 270 Q150 266 208 270" stroke-width="1.2" stroke-opacity="0.5"/><rect x="86" y="108" width="128" height="14" rx="4" fill="#d16937" fill-opacity="0.45"/><path d="M120 70 Q113 55 122 42 Q129 30 120 18" stroke-opacity="0.55"/><path d="M180 75 Q187 60 178 46 Q171 34 180 22" stroke-opacity="0.55"/></g></svg>