<svg viewBox="0 0 400 300" xmlns="http://www.w3.org/2000/svg"><g fill="none" stroke="#3B2A1E" stroke-width="2" stroke-linejoin="round" stroke-linecap="round"><polygon points="110,90 140,72 170,90 170,125 140,143 110,125"/><polygon points="170,90 200,72 230,90 230,125 200,143 170,125"/><polygon points="230,90 260,72 290,90 290,125 260,143 230,125"/><polygon points="140,143 170,125 200,143 200,178 170,196 140,178"/><polygon points="200,143 230,125 260,143 260,178 230,196 200,178"/><polygon points="110,125 140,143 140,178 110,196 80,178 80,143"/><polygon points="260,143 290,125 320,143 320,178 290,196 260,178"/><polygon points="170,196 200,178 230,196 230,231 200,249 170,231"/></g><polygon points="170,90 200,72 230,90 230,125 200,143 170,125" fill="#d16937" fill-opacity="0.55" stroke="#3B2A1E" stroke-width="2"/><path d="M178,98 Q200,88 222,98" fill="none" stroke="#3B2A1E" stroke-width="1.3"/><polygon points="140,143 170,125 200,143 200,178 170,196 140,178" fill="#d16937" fill-opacity="0.55" stroke="#3B2A1E" stroke-width="2"/><path d="M148,150 Q170,140 192,150" fill="none" stroke="#3B2A1E" stroke-width="1.3"/><polygon points="230,90 260,72 290,90 290,125 260,143 230,125" fill="#d16937" fill-opacity="0.55" stroke="#3B2A1E" stroke-width="2"/><path d="M238,98 Q260,88 282,98" fill="none" stroke="#3B2A1E" stroke-width="1.3"/></svg>