<svg viewBox="0 0 300 400" xmlns="http://www.w3.org/2000/svg">
  <g fill="none" stroke="#3B2A1E" stroke-width="2.4" stroke-linecap="round" stroke-linejoin="round">
    <!-- bottle silhouette -->
    <path d="M118 88 q-2 14 -3 22 q-26 8 -34 36 q-6 22 -6 110 q0 70 4 90 q3 16 17 18 q39 4 78 0 q14 -2 17 -18 q4 -20 4 -90 q0 -88 -6 -110 q-8 -28 -34 -36 q-1 -8 -3 -22 z"/>
    <!-- neck -->
    <path d="M117 88 q0 -10 1 -18 l64 0 q1 8 1 18"/>
    <!-- cap -->
    <path d="M114 70 q-2 -22 2 -28 q2 -4 8 -4 l52 0 q6 0 8 4 q4 6 2 28 z"/>
    <line x1="120" y1="42" x2="180" y2="42"/>
    <line x1="121" y1="50" x2="179" y2="50"/>
    <line x1="121" y1="58" x2="179" y2="58"/>
  </g>

  <!-- liquid fill -->
  <path d="M82 200 q-3 10 -3 56 q0 70 4 90 q3 16 17 18 q39 4 78 0 q14 -2 17 -18 q4 -20 4 -90 q0 -46 -3 -56 q-57 16 -114 0 z" fill="#d16937" fill-opacity="0.28" stroke="none"/>
  <path d="M82 200 q57 16 114 0" fill="none" stroke="#3B2A1E" stroke-width="1.6"/>

  <!-- label -->
  <g fill="none" stroke="#3B2A1E" stroke-width="1.8" stroke-linecap="round">
    <rect x="92" y="150" width="116" height="84" rx="6" fill="#d16937" fill-opacity="0.16"/>
    <!-- H2O2 schematic marks -->
    <line x1="108" y1="166" x2="108" y2="186"/>
    <line x1="122" y1="166" x2="122" y2="186"/>
    <line x1="108" y1="176" x2="122" y2="176"/>
    <circle cx="142" cy="176" r="9"/>
    <line x1="160" y1="166" x2="160" y2="186"/>
    <line x1="174" y1="166" x2="174" y2="186"/>
    <line x1="160" y1="176" x2="174" y2="176"/>
    <circle cx="192" cy="176" r="9"/>
    <!-- text lines -->
    <line x1="104" y1="204" x2="196" y2="204"/>
    <line x1="104" y1="214" x2="196" y2="214"/>
    <line x1="104" y1="224" x2="176" y2="224"/>
  </g>

  <!-- highlight on bottle -->
  <path d="M88 130 q-6 14 -6 40" fill="none" stroke="#3B2A1E" stroke-width="1.3" stroke-opacity="0.5"/>
</svg>