<svg viewBox="0 0 400 300" xmlns="http://www.w3.org/2000/svg">
  <path d="M40,60 Q200,55 360,60 L362,250 Q200,255 38,250 Z" fill="none" stroke="#3B2A1E" stroke-width="2.5" stroke-linecap="round"/>

  <path d="M40,60 Q200,55 360,60 L361,95 Q200,92 39,95 Z" fill="#d16937" fill-opacity="0.5" stroke="#3B2A1E" stroke-width="1.5"/>
  <path d="M39,95 Q200,92 361,95 L361,135 Q200,132 38,135 Z" fill="#d16937" fill-opacity="0.8" stroke="#3B2A1E" stroke-width="1.5"/>
  <path d="M38,135 Q200,132 361,135 L362,180 Q200,177 37,180 Z" fill="#d16937" fill-opacity="0.3" stroke="#3B2A1E" stroke-width="1.5"/>
  <path d="M37,180 Q200,177 362,180 L362,250 Q200,255 38,250 Z" fill="#3B2A1E" fill-opacity="0.18" stroke="#3B2A1E" stroke-width="1.5"/>

  <line x1="55" y1="208" x2="345" y2="208" stroke="#3B2A1E" stroke-width="0.8" stroke-opacity="0.5"/>
  <line x1="55" y1="225" x2="345" y2="225" stroke="#3B2A1E" stroke-width="0.8" stroke-opacity="0.5"/>
  <line x1="70" y1="240" x2="80" y2="195" stroke="#3B2A1E" stroke-width="0.7" stroke-opacity="0.4"/>
  <line x1="130" y1="242" x2="140" y2="193" stroke="#3B2A1E" stroke-width="0.7" stroke-opacity="0.4"/>
  <line x1="200" y1="243" x2="210" y2="192" stroke="#3B2A1E" stroke-width="0.7" stroke-opacity="0.4"/>
  <line x1="270" y1="242" x2="280" y2="193" stroke="#3B2A1E" stroke-width="0.7" stroke-opacity="0.4"/>
  <line x1="320" y1="240" x2="330" y2="195" stroke="#3B2A1E" stroke-width="0.7" stroke-opacity="0.4"/>

  <line x1="375" y1="60" x2="392" y2="60" stroke="#3B2A1E" stroke-width="1"/>
  <line x1="375" y1="95" x2="392" y2="95" stroke="#3B2A1E" stroke-width="1"/>
  <line x1="375" y1="135" x2="392" y2="135" stroke="#3B2A1E" stroke-width="1"/>
  <line x1="375" y1="180" x2="392" y2="180" stroke="#3B2A1E" stroke-width="1"/>
  <line x1="375" y1="250" x2="392" y2="250" stroke="#3B2A1E" stroke-width="1"/>

  <line x1="388" y1="62" x2="388" y2="93" stroke="#3B2A1E" stroke-width="1"/>
  <line x1="388" y1="97" x2="388" y2="133" stroke="#3B2A1E" stroke-width="1"/>
  <line x1="388" y1="137" x2="388" y2="178" stroke="#3B2A1E" stroke-width="1"/>
  <line x1="388" y1="182" x2="388" y2="248" stroke="#3B2A1E" stroke-width="1"/>

  <circle cx="200" cy="35" r="6" fill="none" stroke="#3B2A1E" stroke-width="1.5"/>
  <line x1="200" y1="41" x2="200" y2="54" stroke="#3B2A1E" stroke-width="1.5"/>
  <line x1="195" y1="48" x2="200" y2="54" stroke="#3B2A1E" stroke-width="1.5"/>
  <line x1="205" y1="48" x2="200" y2="54" stroke="#3B2A1E" stroke-width="1.5"/>
</svg>