<svg viewBox="0 0 400 300" xmlns="http://www.w3.org/2000/svg" fill="none" stroke="#3B2A1E" stroke-width="2" stroke-linecap="round" stroke-linejoin="round">
  <!-- Left can outer silhouette -->
  <path d="M70 130 q-3 -8 5 -10 l90 -2 q8 1 6 11 l-2 130 q1 8 -7 9 l-86 1 q-8 0 -8 -9 z"/>
  <!-- Left can lid ellipse -->
  <ellipse cx="120" cy="128" rx="50" ry="11" fill="#d16937" fill-opacity="0.25"/>
  <ellipse cx="120" cy="128" rx="42" ry="8"/>
  <!-- Left can rim line -->
  <path d="M71 142 q49 9 96 -1"/>
  <!-- Left handle -->
  <path d="M82 124 q38 -28 76 -1" stroke-width="1.6"/>
  <!-- Left label band -->
  <path d="M70 175 l101 -2"/>
  <path d="M69 215 l101 -2"/>
  <rect x="88" y="183" width="62" height="22" rx="3" fill="#d16937" fill-opacity="0.35" stroke-width="1.4"/>
  <path d="M95 219 l50 -1" stroke-width="1.2"/>
  <path d="M95 226 l40 -1" stroke-width="1.2"/>

  <!-- Right can outer silhouette -->
  <path d="M210 155 q-3 -7 5 -9 l95 -2 q8 1 6 10 l-2 105 q1 8 -7 9 l-90 1 q-8 0 -8 -9 z"/>
  <!-- Right can lid ellipse -->
  <ellipse cx="263" cy="153" rx="53" ry="11" fill="#d16937" fill-opacity="0.25"/>
  <ellipse cx="263" cy="153" rx="44" ry="8"/>
  <!-- Right can rim -->
  <path d="M211 168 q52 9 101 -1"/>
  <!-- Right handle -->
  <path d="M225 149 q38 -26 78 -1" stroke-width="1.6"/>
  <!-- Right label band -->
  <path d="M210 195 l104 -2"/>
  <path d="M209 235 l104 -2"/>
  <rect x="230" y="203" width="64" height="22" rx="3" fill="#d16937" fill-opacity="0.5" stroke-width="1.4"/>
  <!-- brush mark on label -->
  <path d="M240 213 q12 -6 24 0 t20 1" stroke-width="1.3"/>

  <!-- Small open can front -->
  <path d="M150 248 q-2 -5 4 -6 l50 -1 q6 1 4 7 l-2 22 q0 5 -5 5 l-46 1 q-5 0 -5 -5 z" fill="#d16937" fill-opacity="0.2"/>
  <ellipse cx="178" cy="247" rx="28" ry="6"/>
  <ellipse cx="178" cy="247" rx="21" ry="4" fill="#d16937" fill-opacity="0.5"/>
  <!-- brush leaning -->
  <line x1="200" y1="200" x2="186" y2="246"/>
  <line x1="206" y1="201" x2="192" y2="247"/>
  <path d="M198 198 q5 -3 10 1 l-2 5 q-5 -2 -10 0 z" fill="#d16937" fill-opacity="0.6"/>
</svg>