<svg viewBox="0 0 400 300" xmlns="http://www.w3.org/2000/svg">
<g fill="none" stroke="#3B2A1E" stroke-width="2.5" stroke-linecap="round" stroke-linejoin="round">

<!-- outer shelf frame -->
<path d="M30 40 Q200 37 372 41 Q374 160 371 262 Q200 266 31 261 Q28 150 30 40 Z"/>

<!-- shelf boards -->
<path d="M31 150 Q200 147 371 150"/>
<path d="M33 261 Q200 265 371 262"/>

</g>

<!-- TOP SHELF CANS -->
<g stroke="#3B2A1E" stroke-width="2" stroke-linecap="round" stroke-linejoin="round">

<!-- can 1 -->
<rect x="52" y="62" width="38" height="78" rx="3" fill="#d16937" opacity="0.85"/>
<rect x="52" y="62" width="38" height="78" rx="3" fill="none"/>
<path d="M52 70 Q71 67 90 70" fill="none"/>
<path d="M52 132 Q71 135 90 132" fill="none"/>
<line x1="61" y1="85" x2="61" y2="118" stroke-width="1.3"/>
<line x1="81" y1="85" x2="81" y2="118" stroke-width="1.3"/>

<!-- can 2 -->
<rect x="102" y="58" width="40" height="82" rx="3" fill="#c95a28" opacity="0.8"/>
<rect x="102" y="58" width="40" height="82" rx="3" fill="none"/>
<path d="M102 66 Q122 63 142 66" fill="none"/>
<path d="M102 132 Q122 135 142 132" fill="none"/>
<circle cx="122" cy="98" r="9" fill="none" stroke-width="1.5"/>

<!-- can 3 -->
<rect x="155" y="64" width="36" height="76" rx="3" fill="#d16937" opacity="0.85"/>
<rect x="155" y="64" width="36" height="76" rx="3" fill="none"/>
<path d="M155 72 Q173 69 191 72" fill="none"/>
<path d="M155 132 Q173 135 191 132" fill="none"/>
<line x1="155" y1="95" x2="191" y2="95" stroke-width="1.3"/>
<line x1="155" y1="110" x2="191" y2="110" stroke-width="1.3"/>

<!-- can 4 -->
<rect x="205" y="60" width="42" height="80" rx="3" fill="#c95a28" opacity="0.8"/>
<rect x="205" y="60" width="42" height="80" rx="3" fill="none"/>
<path d="M205 68 Q226 65 247 68" fill="none"/>
<path d="M205 132 Q226 135 247 132" fill="none"/>
<line x1="216" y1="84" x2="216" y2="120" stroke-width="1.3"/>
<line x1="236" y1="84" x2="236" y2="120" stroke-width="1.3"/>

<!-- can 5 -->
<rect x="262" y="65" width="38" height="75" rx="3" fill="#d16937" opacity="0.85"/>
<rect x="262" y="65" width="38" height="75" rx="3" fill="none"/>
<path d="M262 73 Q281 70 300 73" fill="none"/>
<path d="M262 132 Q281 135 300 132" fill="none"/>
<circle cx="281" cy="100" r="8" fill="none" stroke-width="1.5"/>

<!-- can 6 -->
<rect x="314" y="59" width="40" height="81" rx="3" fill="#c95a28" opacity="0.8"/>
<rect x="314" y="59" width="40" height="81" rx="3" fill="none"/>
<path d="M314 67 Q334 64 354 67" fill="none"/>
<path d="M314 132 Q334 135 354 132" fill="none"/>
<line x1="314" y1="92" x2="354" y2="92" stroke-width="1.3"/>
<line x1="314" y1="108" x2="354" y2="108" stroke-width="1.3"/>

</g>

<!-- BOTTOM SHELF CANS -->
<g stroke="#3B2A1E" stroke-width="2" stroke-linecap="round" stroke-linejoin="round">

<!-- can A -->
<rect x="58" y="178" width="44" height="80" rx="3" fill="#d16937" opacity="0.85"/>
<rect x="58" y="178" width="44" height="80" rx="3" fill="none"/>
<path d="M58 186 Q80 183 102 186" fill="none"/>
<path d="M58 250 Q80 253 102 250" fill="none"/>
<line x1="58" y1="208" x2="102" y2="208" stroke-width="1.3"/>
<line x1="58" y1="224" x2="102" y2="224" stroke-width="1.3"/>

<!-- can B -->
<rect x="118" y="182" width="42" height="76" rx="3" fill="#c95a28" opacity="0.8"/>
<rect x="118" y="182" width="42" height="76" rx="3" fill="none"/>
<path d="M118 190 Q139 187 160 190" fill="none"/>
<path d="M118 250 Q139 253 160 250" fill="none"/>
<circle cx="139" cy="218" r="10" fill="none" stroke-width="1.5"/>

<!-- can C -->
<rect x="176" y="176" width="46" height="82" rx="3" fill="#d16937" opacity="0.85"/>
<rect x="176" y="176" width="46" height="82" rx="3" fill="none"/>
<path d="M176 184 Q199 181 222 184" fill="none"/>
<path d="M176 250 Q199 253 222 250" fill="none"/>
<line x1="188" y1="202" x2="188" y2="238" stroke-width="1.3"/>
<line x1="210" y1="202" x2="210" y2="238" stroke-width="1.3"/>

<!-- can D -->
<rect x="238" y="184" width="40" height="74" rx="3" fill="#c95a28" opacity="0.8"/>
<rect x="238" y="184" width="40" height="74" rx="3" fill="none"/>
<path d="M238 192 Q258 189 278 192" fill="none"/>
<path d="M238 250 Q258 253 278 250" fill="none"/>
<line x1="238" y1="212" x2="278" y2="212" stroke-width="1.3"/>
<line x1="238" y1="228" x2="278" y2="228" stroke-width="1.3"/>

<!-- can E -->
<rect x="294" y="178" width="44" height="80" rx="3" fill="#d16937" opacity="0.85"/>
<rect x="294" y="178" width="44" height="80" rx="3" fill="none"/>
<path d="M294 186 Q316 183 338 186" fill="none"/>
<path d="M294 250 Q316 253 338 250" fill="none"/>
<circle cx="316" cy="216" r="9" fill="none" stroke-width="1.5"/>

</g>
</svg>