<svg viewBox="0 0 400 300" xmlns="http://www.w3.org/2000/svg"><g stroke="#897f78" stroke-width="2" fill="none"><circle cx="100" cy="150" r="18"/><polyline points="100,168 100,195" stroke-width="1.5"/><circle cx="92" cy="208" r="6" stroke-width="1.5"/><circle cx="108" cy="208" r="6" stroke-width="1.5"/></g><g stroke="#897f78" stroke-width="2" fill="none"><circle cx="177" cy="150" r="18"/><polyline points="177,168 177,195" stroke-width="1.5"/><circle cx="169" cy="208" r="6" stroke-width="1.5"/><circle cx="185" cy="208" r="6" stroke-width="1.5"/></g><g stroke="#897f78" stroke-width="2" fill="none"><circle cx="254" cy="150" r="18"/><polyline points="254,168 254,195" stroke-width="1.5"/><circle cx="246" cy="208" r="6" stroke-width="1.5"/><circle cx="262" cy="208" r="6" stroke-width="1.5"/></g><g stroke="#897f78" stroke-width="2" fill="none"><circle cx="331" cy="150" r="18"/><polyline points="331,168 331,195" stroke-width="1.5"/><circle cx="323" cy="208" r="6" stroke-width="1.5"/><circle cx="339" cy="208" r="6" stroke-width="1.5"/></g><g stroke="#8e857f" stroke-width="2" fill="none"><line x1="118" y1="150" x2="159" y2="150"/><line x1="195" y1="150" x2="236" y2="150"/><line x1="272" y1="150" x2="313" y2="150"/></g></svg>