<svg viewBox="0 0 300 400" xmlns="http://www.w3.org/2000/svg">
  <!-- Jar outer silhouette -->
  <path d="M95 110 Q92 100 100 95 L108 88 Q110 80 115 78 L185 78 Q190 80 192 88 L200 95 Q208 100 205 110 Q210 130 210 180 Q212 280 205 330 Q203 350 185 352 L115 352 Q97 350 95 330 Q88 280 90 180 Q90 130 95 110 Z" fill="none" stroke="#3B2A1E" stroke-width="2.5"/>
  <!-- Lid -->
  <path d="M112 78 Q108 60 115 56 L185 56 Q192 60 188 78 Z" fill="#d16937" fill-opacity="0.35" stroke="#3B2A1E" stroke-width="2.5"/>
  <line x1="115" y1="66" x2="185" y2="66" stroke="#3B2A1E" stroke-width="1.5"/>
  <!-- Lid rim ridges -->
  <path d="M114 70 Q150 73 186 70" fill="none" stroke="#3B2A1E" stroke-width="1"/>
  <!-- Glass shine -->
  <path d="M108 130 Q104 200 110 300" fill="none" stroke="#3B2A1E" stroke-width="1" stroke-opacity="0.5"/>
  <path d="M118 130 Q115 200 120 300" fill="none" stroke="#3B2A1E" stroke-width="0.8" stroke-opacity="0.4"/>

  <!-- Honeycomb inside (left to right) -->
  <g stroke="#3B2A1E" stroke-width="1.5" fill="#d16937" fill-opacity="0.25">
    <polygon points="118,250 128,245 138,250 138,262 128,267 118,262"/>
    <polygon points="138,250 148,245 158,250 158,262 148,267 138,262"/>
    <polygon points="158,250 168,245 178,250 178,262 168,267 158,262"/>
    <polygon points="128,267 138,262 148,267 148,279 138,284 128,279"/>
    <polygon points="148,267 158,262 168,267 168,279 158,284 148,279"/>
    <polygon points="138,284 148,279 158,284 158,296 148,301 138,296"/>
  </g>

  <!-- Bee 1 -->
  <g stroke="#3B2A1E" stroke-width="1.5">
    <ellipse cx="135" cy="150" rx="16" ry="11" fill="#d16937" fill-opacity="0.4"/>
    <line x1="128" y1="140" x2="130" y2="160" stroke-width="2"/>
    <line x1="137" y1="139" x2="139" y2="161" stroke-width="2"/>
    <line x1="146" y1="141" x2="147" y2="159" stroke-width="2"/>
    <circle cx="120" cy="148" r="6" fill="#3B2A1E" fill-opacity="0.2"/>
    <path d="M138 142 Q150 130 158 140 Q150 148 142 146" fill="#d16937" fill-opacity="0.2"/>
    <path d="M132 142 Q120 130 112 140 Q120 148 128 146" fill="#d16937" fill-opacity="0.2"/>
    <line x1="117" y1="143" x2="112" y2="136"/>
    <line x1="120" y1="143" x2="118" y2="135"/>
  </g>

  <!-- Bee 2 -->
  <g stroke="#3B2A1E" stroke-width="1.5">
    <ellipse cx="175" cy="200" rx="14" ry="9" fill="#d16937" fill-opacity="0.4"/>
    <line x1="169" y1="192" x2="171" y2="208" stroke-width="2"/>
    <line x1="177" y1="191" x2="178" y2="209" stroke-width="2"/>
    <circle cx="162" cy="198" r="5" fill="#3B2A1E" fill-opacity="0.2"/>
    <path d="M178 193 Q188 184 194 192 Q188 199 181 196" fill="#d16937" fill-opacity="0.2"/>
  </g>

  <!-- Bee 3 small flying -->
  <g stroke="#3B2A1E" stroke-width="1.3">
    <ellipse cx="150" cy="310" rx="11" ry="7" fill="#d16937" fill-opacity="0.4"/>
    <line x1="146" y1="304" x2="147" y2="316" stroke-width="1.8"/>
    <line x1="153" y1="304" x2="154" y2="316" stroke-width="1.8"/>
    <circle cx="140" cy="308" r="4" fill="#3B2A1E" fill-opacity="0.2"/>
  </g>

  <!-- Label band -->
  <path d="M96 165 Q150 172 204 165 L204 195 Q150 202 96 195 Z" fill="none" stroke="#3B2A1E" stroke-width="1" stroke-opacity="0.4"/>
</svg>