<svg viewBox="0 0 300 400" xmlns="http://www.w3.org/2000/svg"><g fill="none" stroke="#3B2A1E" stroke-width="2" stroke-linecap="round" stroke-linejoin="round"><path d="M80 150 Q78 280 82 350 Q150 360 218 350 Q222 280 220 150" fill="#d16937" fill-opacity="0.25"/><path d="M78 150 Q80 120 150 118 Q220 120 222 150 Q222 158 150 160 Q78 158 78 150 Z" fill="#d16937" fill-opacity="0.4"/><path d="M90 122 Q150 110 210 122 Q212 100 150 96 Q88 100 90 122 Z" fill="#d16937" fill-opacity="0.5"/><path d="M95 99 Q150 116 205 99" stroke-width="2.5"/><path d="M100 95 Q150 112 200 95 Q200 82 150 86 Q100 82 100 95 Z" fill="#d16937" fill-opacity="0.6"/><path d="M118 104 Q150 116 182 104" stroke-width="1.2" stroke-opacity="0.6"/><line x1="60" y1="105" x2="48" y2="100" stroke-width="1.5"/><line x1="240" y1="105" x2="252" y2="100" stroke-width="1.5"/><line x1="70" y1="90" x2="60" y2="82" stroke-width="1.5"/><line x1="230" y1="90" x2="240" y2="82" stroke-width="1.5"/></g></svg>