<svg viewBox="0 0 400 300" xmlns="http://www.w3.org/2000/svg"><g fill="none" stroke="#3B2A1E" stroke-width="2" stroke-linecap="round" stroke-linejoin="round"><g transform="rotate(-48 120 200)"><path d="M70 90 q-3 -8 6 -10 l8 -2 q3 -10 12 -10 q9 0 12 10 l8 2 q9 2 6 10 l4 130 q1 12 -11 13 l-38 0 q-12 -1 -11 -13 z" fill="#d16937" fill-opacity="0.3"/><line x1="94" y1="58" x2="94" y2="38"/><line x1="108" y1="58" x2="108" y2="38"/><rect x="92" y="30" width="18" height="10" rx="2" fill="#3B2A1E" fill-opacity="0.2"/><path d="M74 150 l54 0 l3 70 l-60 0 z" fill="#d16937" fill-opacity="0.25"/></g><g stroke-width="1.5" stroke="#1E7A6E"><path d="M190 118 q42 30 66 98"/><path d="M214 132 q28 30 46 100"/><circle cx="248" cy="180" r="5" fill="#1E7A6E" fill-opacity="0.5"/><circle cx="232" cy="168" r="4" fill="#1E7A6E" fill-opacity="0.5"/></g><g stroke-width="1.5"><ellipse cx="280" cy="250" rx="36" ry="24" fill="#1E7A6E" fill-opacity="0.55" stroke="#1E7A6E"/><path d="M260 230 q-6 16 4 30" stroke="#1E7A6E"/><path d="M280 226 q-4 18 0 34" stroke="#1E7A6E"/><path d="M300 230 q6 16 -4 30" stroke="#1E7A6E"/><path d="M250 250 l60 0" stroke="#1E7A6E"/></g></g></svg>