<svg viewBox="0 0 400 300" xmlns="http://www.w3.org/2000/svg"><g fill="none" stroke="#3B2A1E" stroke-width="2" stroke-linecap="round" stroke-linejoin="round"><g transform="rotate(-48 120 200)"><path d="M70 90 q-3 -8 6 -10 l8 -2 q3 -10 12 -10 q9 0 12 10 l8 2 q9 2 6 10 l4 130 q1 12 -11 13 l-38 0 q-12 -1 -11 -13 z" fill="#d16937" fill-opacity="0.3"/><line x1="94" y1="58" x2="94" y2="38"/><line x1="108" y1="58" x2="108" y2="38"/><rect x="92" y="30" width="18" height="10" rx="2" fill="#3B2A1E" fill-opacity="0.2"/><path d="M74 150 l54 0 l3 70 l-60 0 z" fill="#d16937" fill-opacity="0.25"/></g><g stroke-width="1.5" stroke="#2E8B8B"><path d="M190 120 q40 30 64 96"/><path d="M210 130 q30 30 48 100"/><circle cx="250" cy="205" r="4" fill="#2E8B8B" fill-opacity="0.4"/><circle cx="235" cy="190" r="3" fill="#2E8B8B" fill-opacity="0.4"/></g><g stroke-width="1.5"><ellipse cx="280" cy="250" rx="34" ry="22" fill="#2E8B8B" fill-opacity="0.3" stroke="#2E8B8B"/><path d="M260 232 q-6 14 4 28" stroke="#2E8B8B"/><path d="M280 228 q-4 16 0 32" stroke="#2E8B8B"/><path d="M300 232 q6 14 -4 28" stroke="#2E8B8B"/><path d="M252 250 l56 0" stroke="#2E8B8B"/></g></g></svg>